<?xml version="1.0" encoding="UTF-8" standalone="no"?>
<!DOCTYPE svg PUBLIC "-//W3C//DTD SVG 1.1//EN"
 "http://www.w3.org/Graphics/SVG/1.1/DTD/svg11.dtd">
<!-- Generated by graphviz version 2.46.0 (20210118.1747)
 -->
<!-- Title: Qaterial Pages: 1 -->
<svg width="1932pt" height="752pt"
 viewBox="0.00 0.00 1932.12 752.43" xmlns="http://www.w3.org/2000/svg" xmlns:xlink="http://www.w3.org/1999/xlink">
<g id="graph0" class="graph" transform="scale(1 1) rotate(0) translate(4 748.43)">
<title>Qaterial</title>
<g id="clust1" class="cluster">
<title>clusterLegend</title>
<polygon fill="transparent" stroke="black" points="8,-478 8,-736.43 521,-736.43 521,-478 8,-478"/>
<text text-anchor="middle" x="264.5" y="-721.23" font-family="Times New Roman,serif" font-size="14.00">Legend</text>
</g>
<!-- legendNode0 -->
<g id="node1" class="node">
<title>legendNode0</title>
<polygon fill="white" stroke="black" points="274.98,-669.48 277.62,-669.58 280.23,-669.73 282.8,-669.93 285.32,-670.17 287.79,-670.46 290.18,-670.8 292.5,-671.18 294.74,-671.61 296.87,-672.08 298.91,-672.59 300.84,-673.15 302.65,-673.74 304.34,-674.37 305.9,-675.04 307.33,-675.74 308.63,-676.47 309.79,-677.24 310.81,-678.03 311.69,-678.84 312.43,-679.68 313.03,-680.54 313.48,-681.42 313.8,-682.32 313.99,-683.23 314.04,-684.15 313.95,-685.08 313.75,-686.02 313.41,-686.96 312.97,-687.91 312.4,-688.85 311.73,-689.78 310.96,-690.72 310.09,-691.64 309.13,-692.55 308.08,-693.44 306.96,-694.32 305.76,-695.19 304.49,-696.03 303.16,-696.84 301.78,-697.63 300.34,-698.4 298.86,-699.13 297.33,-699.83 295.77,-700.5 294.17,-701.13 292.55,-701.72 290.9,-702.27 289.23,-702.79 287.54,-703.26 285.84,-703.69 284.12,-704.07 282.39,-704.41 280.65,-704.7 278.91,-704.94 277.15,-705.14 275.4,-705.29 273.64,-705.38 271.88,-705.43 270.12,-705.43 268.36,-705.38 266.6,-705.29 264.85,-705.14 263.09,-704.94 261.35,-704.7 259.61,-704.41 257.88,-704.07 256.16,-703.69 254.46,-703.26 252.77,-702.79 251.1,-702.27 249.45,-701.72 247.83,-701.13 246.23,-700.5 244.67,-699.83 243.14,-699.13 241.66,-698.4 240.22,-697.63 238.84,-696.84 237.51,-696.03 236.24,-695.19 235.04,-694.32 233.92,-693.44 232.87,-692.55 231.91,-691.64 231.04,-690.72 230.27,-689.78 229.6,-688.85 229.03,-687.91 228.59,-686.96 228.25,-686.02 228.05,-685.08 227.96,-684.15 228.01,-683.23 228.2,-682.32 228.52,-681.42 228.97,-680.54 229.57,-679.68 230.31,-678.84 231.19,-678.03 232.21,-677.24 233.37,-676.47 234.67,-675.74 236.1,-675.04 237.66,-674.37 239.35,-673.74 241.16,-673.15 243.09,-672.59 245.13,-672.08 247.26,-671.61 249.5,-671.18 251.82,-670.8 254.21,-670.46 256.68,-670.17 259.2,-669.93 261.77,-669.73 264.38,-669.58 267.02,-669.48 269.67,-669.43 272.33,-669.43 274.98,-669.48"/>
<text text-anchor="middle" x="271" y="-684.33" font-family="Times New Roman,serif" font-size="12.00">Executable</text>
</g>
<!-- legendNode1 -->
<g id="node2" class="node">
<title>legendNode1</title>
<polygon fill="white" stroke="black" points="119.94,-595.26 119.94,-610.17 89.52,-620.72 46.48,-620.72 16.06,-610.17 16.06,-595.26 46.48,-584.72 89.52,-584.72 119.94,-595.26"/>
<text text-anchor="middle" x="68" y="-599.62" font-family="Times New Roman,serif" font-size="12.00">Static Library</text>
</g>
<!-- legendNode0&#45;&gt;legendNode1 -->
<g id="edge1" class="edge">
<title>legendNode0&#45;&gt;legendNode1</title>
<path fill="none" stroke="black" d="M237.14,-674.39C208.19,-663.89 165.53,-647.95 129,-632.43 121.65,-629.31 113.89,-625.82 106.46,-622.37"/>
<polygon fill="black" stroke="black" points="107.81,-619.14 97.27,-618.05 104.83,-625.47 107.81,-619.14"/>
</g>
<!-- legendNode2 -->
<g id="node3" class="node">
<title>legendNode2</title>
<polygon fill="white" stroke="black" points="255.76,-595.26 255.76,-610.17 222.51,-620.72 175.49,-620.72 142.24,-610.17 142.24,-595.26 175.49,-584.72 222.51,-584.72 255.76,-595.26"/>
<polygon fill="none" stroke="black" points="259.77,-592.34 259.77,-613.1 223.13,-624.72 174.87,-624.72 138.23,-613.1 138.23,-592.34 174.87,-580.72 223.13,-580.72 259.77,-592.34"/>
<text text-anchor="middle" x="199" y="-599.62" font-family="Times New Roman,serif" font-size="12.00">Shared Library</text>
</g>
<!-- legendNode0&#45;&gt;legendNode2 -->
<g id="edge2" class="edge">
<title>legendNode0&#45;&gt;legendNode2</title>
<path fill="none" stroke="black" d="M256.78,-670.09C247.41,-659.33 234.89,-644.95 223.9,-632.33"/>
<polygon fill="black" stroke="black" points="226.51,-629.99 217.3,-624.74 221.23,-634.58 226.51,-629.99"/>
</g>
<!-- legendNode3 -->
<g id="node4" class="node">
<title>legendNode3</title>
<polygon fill="white" stroke="black" points="402.75,-595.26 402.75,-610.17 368.34,-620.72 319.66,-620.72 285.25,-610.17 285.25,-595.26 319.66,-584.72 368.34,-584.72 402.75,-595.26"/>
<polygon fill="none" stroke="black" points="406.76,-592.3 406.76,-613.13 368.94,-624.72 319.06,-624.72 281.24,-613.13 281.24,-592.3 319.06,-580.72 368.94,-580.72 406.76,-592.3"/>
<polygon fill="none" stroke="black" points="410.77,-589.35 410.77,-616.09 369.54,-628.72 318.46,-628.72 277.23,-616.09 277.23,-589.35 318.46,-576.72 369.54,-576.72 410.77,-589.35"/>
<text text-anchor="middle" x="344" y="-599.62" font-family="Times New Roman,serif" font-size="12.00">Module Library</text>
</g>
<!-- legendNode0&#45;&gt;legendNode3 -->
<!-- legendNode7 -->
<g id="node8" class="node">
<title>legendNode7</title>
<polygon fill="white" stroke="black" points="513,-620.72 429,-620.72 429,-584.72 513,-584.72 513,-620.72"/>
<text text-anchor="middle" x="471" y="-599.62" font-family="Times New Roman,serif" font-size="12.00">Custom Target</text>
</g>
<!-- legendNode0&#45;&gt;legendNode7 -->
<!-- legendNode4 -->
<g id="node5" class="node">
<title>legendNode4</title>
<polygon fill="white" stroke="black" points="156.01,-509.56 86,-522 15.99,-509.56 42.73,-489.44 129.27,-489.44 156.01,-509.56"/>
<text text-anchor="middle" x="86" y="-500.9" font-family="Times New Roman,serif" font-size="12.00">Interface Library</text>
</g>
<!-- legendNode1&#45;&gt;legendNode4 -->
<g id="edge4" class="edge">
<title>legendNode1&#45;&gt;legendNode4</title>
<path fill="none" stroke="black" stroke-dasharray="5,2" d="M71.22,-584.43C73.94,-569.81 77.88,-548.62 81.01,-531.8"/>
<polygon fill="black" stroke="black" points="84.54,-531.97 82.93,-521.5 77.66,-530.69 84.54,-531.97"/>
<text text-anchor="middle" x="104.5" y="-543.8" font-family="Times New Roman,serif" font-size="14.00">Interface</text>
</g>
<!-- legendNode5 -->
<g id="node6" class="node">
<title>legendNode5</title>
<polygon fill="white" stroke="black" points="293.92,-504 263.96,-522 204.04,-522 174.08,-504 204.04,-486 263.96,-486 293.92,-504"/>
<text text-anchor="middle" x="234" y="-500.9" font-family="Times New Roman,serif" font-size="12.00">Object Library</text>
</g>
<!-- legendNode2&#45;&gt;legendNode5 -->
<g id="edge5" class="edge">
<title>legendNode2&#45;&gt;legendNode5</title>
<path fill="none" stroke="black" stroke-dasharray="1,5" d="M206.77,-580.25C211.96,-565.92 218.82,-546.96 224.35,-531.66"/>
<polygon fill="black" stroke="black" points="227.66,-532.81 227.77,-522.22 221.08,-530.43 227.66,-532.81"/>
<text text-anchor="middle" x="240.5" y="-543.8" font-family="Times New Roman,serif" font-size="14.00">Private</text>
</g>
<!-- legendNode6 -->
<g id="node7" class="node">
<title>legendNode6</title>
<polygon fill="white" stroke="black" points="444.05,-499.99 430.97,-515.22 378,-522 325.03,-515.22 311.95,-499.99 348.6,-487.78 407.4,-487.78 444.05,-499.99"/>
<text text-anchor="middle" x="378" y="-500.9" font-family="Times New Roman,serif" font-size="12.00">Unknown Library</text>
</g>
<!-- legendNode3&#45;&gt;legendNode6 -->
<g id="edge6" class="edge">
<title>legendNode3&#45;&gt;legendNode6</title>
<path fill="none" stroke="black" d="M352.84,-576.56C357.75,-562.6 363.85,-545.25 368.81,-531.14"/>
<polygon fill="black" stroke="black" points="372.18,-532.12 372.19,-521.52 365.57,-529.8 372.18,-532.12"/>
</g>
<!-- node0 -->
<g id="node9" class="node">
<title>node0</title>
<polygon fill="white" stroke="black" points="747.97,-595.26 747.97,-610.17 730.41,-620.72 705.59,-620.72 688.03,-610.17 688.03,-595.26 705.59,-584.72 730.41,-584.72 747.97,-595.26"/>
<text text-anchor="middle" x="718" y="-599.62" font-family="Times New Roman,serif" font-size="12.00">QOlm</text>
</g>
<!-- node1 -->
<g id="node10" class="node">
<title>node1</title>
<polygon fill="white" stroke="black" points="571.6,-486.05 573.98,-486.15 576.33,-486.3 578.65,-486.49 580.93,-486.74 583.16,-487.03 585.32,-487.36 587.42,-487.75 589.43,-488.18 591.36,-488.65 593.2,-489.16 594.94,-489.71 596.57,-490.31 598.1,-490.94 599.51,-491.61 600.8,-492.31 601.97,-493.04 603.02,-493.8 603.94,-494.59 604.74,-495.41 605.4,-496.25 605.95,-497.11 606.36,-497.99 606.65,-498.89 606.81,-499.8 606.86,-500.72 606.78,-501.65 606.6,-502.59 606.3,-503.53 605.89,-504.47 605.38,-505.41 604.78,-506.35 604.08,-507.28 603.3,-508.2 602.43,-509.11 601.48,-510.01 600.47,-510.89 599.39,-511.75 598.24,-512.59 597.04,-513.41 595.79,-514.2 594.49,-514.96 593.15,-515.69 591.77,-516.39 590.36,-517.06 588.92,-517.69 587.46,-518.29 585.97,-518.84 584.46,-519.35 582.94,-519.82 581.4,-520.25 579.84,-520.64 578.28,-520.97 576.71,-521.26 575.14,-521.51 573.56,-521.7 571.97,-521.85 570.38,-521.95 568.79,-522 567.21,-522 565.62,-521.95 564.03,-521.85 562.44,-521.7 560.86,-521.51 559.29,-521.26 557.72,-520.97 556.16,-520.64 554.6,-520.25 553.06,-519.82 551.54,-519.35 550.03,-518.84 548.54,-518.29 547.08,-517.69 545.64,-517.06 544.23,-516.39 542.85,-515.69 541.51,-514.96 540.21,-514.2 538.96,-513.41 537.76,-512.59 536.61,-511.75 535.53,-510.89 534.52,-510.01 533.57,-509.11 532.7,-508.2 531.92,-507.28 531.22,-506.35 530.62,-505.41 530.11,-504.47 529.7,-503.53 529.4,-502.59 529.22,-501.65 529.14,-500.72 529.19,-499.8 529.35,-498.89 529.64,-497.99 530.05,-497.11 530.6,-496.25 531.26,-495.41 532.06,-494.59 532.98,-493.8 534.03,-493.04 535.2,-492.31 536.49,-491.61 537.9,-490.94 539.43,-490.31 541.06,-489.71 542.8,-489.16 544.64,-488.65 546.57,-488.18 548.58,-487.75 550.68,-487.36 552.84,-487.03 555.07,-486.74 557.35,-486.49 559.67,-486.3 562.02,-486.15 564.4,-486.05 566.8,-486 569.2,-486 571.6,-486.05"/>
<text text-anchor="middle" x="568" y="-500.9" font-family="Times New Roman,serif" font-size="12.00">Qt5::moc</text>
</g>
<!-- node0&#45;&gt;node1 -->
<g id="edge8" class="edge">
<title>node0&#45;&gt;node1</title>
<path fill="none" stroke="black" d="M698.08,-588.87C672.23,-572.2 626.91,-542.98 597.17,-523.81"/>
<polygon fill="black" stroke="black" points="598.78,-520.68 588.48,-518.21 594.99,-526.57 598.78,-520.68"/>
</g>
<!-- node2 -->
<g id="node11" class="node">
<title>node2</title>
<polygon fill="white" stroke="black" points="1098.72,-509.56 1056,-522 1013.28,-509.56 1029.6,-489.44 1082.4,-489.44 1098.72,-509.56"/>
<text text-anchor="middle" x="1056" y="-500.9" font-family="Times New Roman,serif" font-size="12.00">Qt::Core</text>
</g>
<!-- node0&#45;&gt;node2 -->
<g id="edge10" class="edge">
<title>node0&#45;&gt;node2</title>
<path fill="none" stroke="black" d="M737.43,-588.86C760.4,-574.35 800.3,-551.3 838,-540 909.51,-518.57 932.06,-537.89 1005,-522 1010.17,-520.87 1015.55,-519.41 1020.79,-517.82"/>
<polygon fill="black" stroke="black" points="1022.17,-521.05 1030.62,-514.65 1020.02,-514.39 1022.17,-521.05"/>
</g>
<!-- node4 -->
<g id="node13" class="node">
<title>node4</title>
<polygon fill="white" stroke="black" points="816.16,-509.56 776,-522 735.84,-509.56 751.18,-489.44 800.82,-489.44 816.16,-509.56"/>
<text text-anchor="middle" x="776" y="-500.9" font-family="Times New Roman,serif" font-size="12.00">Qt::Qml</text>
</g>
<!-- node0&#45;&gt;node4 -->
<g id="edge15" class="edge">
<title>node0&#45;&gt;node4</title>
<path fill="none" stroke="black" d="M721.87,-584.53C725.29,-571.59 731.15,-553.78 740,-540 743.59,-534.42 748.22,-529.06 752.97,-524.29"/>
<polygon fill="black" stroke="black" points="755.49,-526.72 760.38,-517.32 750.7,-521.62 755.49,-526.72"/>
</g>
<!-- node3 -->
<g id="node12" class="node">
<title>node3</title>
<polygon fill="white" stroke="black" points="1107.14,-14.54 1107.14,-29.46 1083.04,-40 1048.96,-40 1024.86,-29.46 1024.86,-14.54 1048.96,-4 1083.04,-4 1107.14,-14.54"/>
<polygon fill="none" stroke="black" points="1111.12,-11.92 1111.12,-32.08 1083.87,-44 1048.13,-44 1020.88,-32.08 1020.88,-11.92 1048.13,0 1083.87,0 1111.12,-11.92"/>
<text text-anchor="middle" x="1066" y="-18.9" font-family="Times New Roman,serif" font-size="12.00">Qt5::Core</text>
</g>
<!-- node2&#45;&gt;node3 -->
<g id="edge9" class="edge">
<title>node2&#45;&gt;node3</title>
<path fill="none" stroke="black" stroke-dasharray="5,2" d="M1059.44,-489.25C1067.12,-457.3 1085,-375.49 1085,-306 1085,-306 1085,-306 1085,-102 1085,-85.88 1081.21,-68.41 1077.02,-54.01"/>
<polygon fill="black" stroke="black" points="1080.26,-52.64 1073.95,-44.13 1073.58,-54.72 1080.26,-52.64"/>
</g>
<!-- node5 -->
<g id="node14" class="node">
<title>node5</title>
<polygon fill="white" stroke="black" points="925.14,-176.54 925.14,-191.46 902.21,-202 869.79,-202 846.86,-191.46 846.86,-176.54 869.79,-166 902.21,-166 925.14,-176.54"/>
<polygon fill="none" stroke="black" points="929.12,-173.98 929.12,-194.02 903.08,-206 868.92,-206 842.88,-194.02 842.88,-173.98 868.92,-162 903.08,-162 929.12,-173.98"/>
<text text-anchor="middle" x="886" y="-180.9" font-family="Times New Roman,serif" font-size="12.00">Qt5::Qml</text>
</g>
<!-- node4&#45;&gt;node5 -->
<g id="edge14" class="edge">
<title>node4&#45;&gt;node5</title>
<path fill="none" stroke="black" stroke-dasharray="5,2" d="M776,-489.18C776,-474.13 776,-449.35 776,-428 776,-428 776,-428 776,-264 776,-231.75 807.58,-211.38 836.89,-199.42"/>
<polygon fill="black" stroke="black" points="838.2,-202.67 846.29,-195.83 835.7,-196.13 838.2,-202.67"/>
</g>
<!-- node5&#45;&gt;node3 -->
<g id="edge11" class="edge">
<title>node5&#45;&gt;node3</title>
<path fill="none" stroke="black" d="M909.61,-164.71C922.82,-153.9 939.16,-139.51 952,-125 974.46,-99.61 969.9,-84.79 995,-62 1003.37,-54.4 1013.49,-47.73 1023.42,-42.15"/>
<polygon fill="black" stroke="black" points="1025.27,-45.13 1032.45,-37.34 1021.98,-38.96 1025.27,-45.13"/>
</g>
<!-- node6 -->
<g id="node15" class="node">
<title>node6</title>
<polygon fill="white" stroke="black" points="939.12,-95.54 939.12,-110.46 908,-121 864,-121 832.88,-110.46 832.88,-95.54 864,-85 908,-85 939.12,-95.54"/>
<polygon fill="none" stroke="black" points="943.11,-92.67 943.11,-113.33 908.66,-125 863.34,-125 828.89,-113.33 828.89,-92.67 863.34,-81 908.66,-81 943.11,-92.67"/>
<text text-anchor="middle" x="886" y="-99.9" font-family="Times New Roman,serif" font-size="12.00">Qt5::Network</text>
</g>
<!-- node5&#45;&gt;node6 -->
<g id="edge13" class="edge">
<title>node5&#45;&gt;node6</title>
<path fill="none" stroke="black" d="M886,-161.83C886,-153.68 886,-144.2 886,-135.3"/>
<polygon fill="black" stroke="black" points="889.5,-135.23 886,-125.23 882.5,-135.23 889.5,-135.23"/>
</g>
<!-- node6&#45;&gt;node3 -->
<g id="edge12" class="edge">
<title>node6&#45;&gt;node3</title>
<path fill="none" stroke="black" d="M916.16,-83.51C928.57,-76.31 943.23,-68.29 957,-62 976.38,-53.15 998.41,-44.94 1017.56,-38.36"/>
<polygon fill="black" stroke="black" points="1018.93,-41.59 1027.28,-35.07 1016.69,-34.96 1018.93,-41.59"/>
</g>
<!-- node7 -->
<g id="node16" class="node">
<title>node7</title>
<polygon fill="white" stroke="black" points="1008.13,-679.98 1008.13,-694.89 987.55,-705.43 958.45,-705.43 937.87,-694.89 937.87,-679.98 958.45,-669.43 987.55,-669.43 1008.13,-679.98"/>
<text text-anchor="middle" x="973" y="-684.33" font-family="Times New Roman,serif" font-size="12.00">Qaterial</text>
</g>
<!-- node7&#45;&gt;node0 -->
<g id="edge16" class="edge">
<title>node7&#45;&gt;node0</title>
<path fill="none" stroke="black" d="M937.52,-687.4C893.69,-687.12 818.03,-681.69 762,-651.43 751.93,-646 742.93,-637.37 735.73,-628.93"/>
<polygon fill="black" stroke="black" points="738.38,-626.64 729.4,-621.01 732.91,-631.01 738.38,-626.64"/>
</g>
<!-- node7&#45;&gt;node1 -->
<g id="edge61" class="edge">
<title>node7&#45;&gt;node1</title>
<path fill="none" stroke="black" d="M937.77,-684.63C864.73,-680.22 699.99,-666.68 657,-632.43 622.07,-604.61 595.11,-559.51 580.41,-531.09"/>
<polygon fill="black" stroke="black" points="583.35,-529.15 575.73,-521.79 577.1,-532.3 583.35,-529.15"/>
</g>
<!-- node7&#45;&gt;node2 -->
<g id="edge62" class="edge">
<title>node7&#45;&gt;node2</title>
<path fill="none" stroke="black" d="M940.06,-678.66C916.3,-671.15 885.88,-657.15 871,-632.43 857.37,-609.8 855.88,-594.66 871,-573 875.44,-566.64 966.39,-535.18 1019.08,-517.36"/>
<polygon fill="black" stroke="black" points="1020.4,-520.61 1028.76,-514.1 1018.17,-513.98 1020.4,-520.61"/>
</g>
<!-- node7&#45;&gt;node4 -->
<g id="edge64" class="edge">
<title>node7&#45;&gt;node4</title>
<path fill="none" stroke="black" d="M937.85,-686.44C899.14,-684.28 838.96,-673.94 813,-632.43 793.26,-600.88 783.7,-558.4 779.33,-531.35"/>
<polygon fill="black" stroke="black" points="782.79,-530.83 777.86,-521.46 775.87,-531.86 782.79,-530.83"/>
</g>
<!-- node8 -->
<g id="node17" class="node">
<title>node8</title>
<polygon fill="white" stroke="black" points="1066.25,-591.93 1066.25,-613.51 1011.63,-628.76 934.37,-628.76 879.75,-613.51 879.75,-591.93 934.37,-576.67 1011.63,-576.67 1066.25,-591.93"/>
<text text-anchor="middle" x="973" y="-606.12" font-family="Times New Roman,serif" font-size="12.00">QaterialComponents</text>
<text text-anchor="middle" x="973" y="-593.12" font-family="Times New Roman,serif" font-size="12.00">(Qaterial::Components)</text>
</g>
<!-- node7&#45;&gt;node8 -->
<g id="edge46" class="edge">
<title>node7&#45;&gt;node8</title>
<path fill="none" stroke="black" stroke-dasharray="1,5" d="M973,-669.3C973,-660.56 973,-649.61 973,-639.17"/>
<polygon fill="black" stroke="black" points="976.5,-639 973,-629 969.5,-639 976.5,-639"/>
</g>
<!-- node10 -->
<g id="node19" class="node">
<title>node10</title>
<polygon fill="white" stroke="black" points="1278.07,-509.56 1241,-522 1203.93,-509.56 1218.09,-489.44 1263.91,-489.44 1278.07,-509.56"/>
<text text-anchor="middle" x="1241" y="-500.9" font-family="Times New Roman,serif" font-size="12.00">Qt::Gui</text>
</g>
<!-- node7&#45;&gt;node10 -->
<g id="edge63" class="edge">
<title>node7&#45;&gt;node10</title>
<path fill="none" stroke="black" d="M1000.95,-676.26C1022.92,-667.23 1053.34,-652.39 1075,-632.43 1098.06,-611.19 1089.96,-594.26 1113,-573 1140.34,-547.77 1178.8,-529.01 1206.41,-517.65"/>
<polygon fill="black" stroke="black" points="1208.06,-520.76 1216.05,-513.8 1205.46,-514.26 1208.06,-520.76"/>
</g>
<!-- node12 -->
<g id="node21" class="node">
<title>node12</title>
<polygon fill="white" stroke="black" points="717.33,-509.56 671,-522 624.67,-509.56 642.37,-489.44 699.63,-489.44 717.33,-509.56"/>
<text text-anchor="middle" x="671" y="-500.9" font-family="Times New Roman,serif" font-size="12.00">Qt::Quick</text>
</g>
<!-- node7&#45;&gt;node12 -->
<g id="edge65" class="edge">
<title>node7&#45;&gt;node12</title>
<path fill="none" stroke="black" d="M937.77,-685.36C867.04,-682.39 711.7,-671.47 679,-632.43 655.4,-604.26 659.01,-559.12 664.49,-530.81"/>
<polygon fill="black" stroke="black" points="667.95,-531.37 666.63,-520.86 661.11,-529.9 667.95,-531.37"/>
</g>
<!-- node15 -->
<g id="node24" class="node">
<title>node15</title>
<polygon fill="white" stroke="black" points="995.81,-509.56 915,-522 834.19,-509.56 865.06,-489.44 964.94,-489.44 995.81,-509.56"/>
<text text-anchor="middle" x="915" y="-500.9" font-family="Times New Roman,serif" font-size="12.00">Qt::QuickControls2</text>
</g>
<!-- node7&#45;&gt;node15 -->
<g id="edge66" class="edge">
<title>node7&#45;&gt;node15</title>
<path fill="none" stroke="black" d="M937.61,-682.16C901.82,-677.02 850.11,-667.09 838,-651.43 807.69,-612.27 811.19,-581.64 838,-540 843.66,-531.21 852.14,-524.6 861.42,-519.63"/>
<polygon fill="black" stroke="black" points="862.94,-522.79 870.5,-515.37 859.96,-516.45 862.94,-522.79"/>
</g>
<!-- node17 -->
<g id="node26" class="node">
<title>node17</title>
<polygon fill="white" stroke="black" points="1372.09,-509.56 1334,-522 1295.91,-509.56 1310.46,-489.44 1357.54,-489.44 1372.09,-509.56"/>
<text text-anchor="middle" x="1334" y="-500.9" font-family="Times New Roman,serif" font-size="12.00">Qt::Svg</text>
</g>
<!-- node7&#45;&gt;node17 -->
<g id="edge67" class="edge">
<title>node7&#45;&gt;node17</title>
<path fill="none" stroke="black" d="M1008.35,-684.84C1109.66,-679.92 1395.55,-663.37 1423,-632.43 1440.53,-612.67 1434.71,-596.68 1423,-573 1411.04,-548.81 1385.9,-530.87 1365.38,-519.51"/>
<polygon fill="black" stroke="black" points="1366.82,-516.31 1356.34,-514.75 1363.56,-522.5 1366.82,-516.31"/>
</g>
<!-- node20 -->
<g id="node29" class="node">
<title>node20</title>
<polygon fill="white" stroke="black" points="1469.63,-509.56 1430,-522 1390.37,-509.56 1405.5,-489.44 1454.5,-489.44 1469.63,-509.56"/>
<text text-anchor="middle" x="1430" y="-500.9" font-family="Times New Roman,serif" font-size="12.00">Qt::Xml</text>
</g>
<!-- node7&#45;&gt;node20 -->
<g id="edge68" class="edge">
<title>node7&#45;&gt;node20</title>
<path fill="none" stroke="black" d="M1008.31,-685.31C1113.14,-681.56 1416.85,-667.73 1442,-632.43 1463.59,-602.13 1451.81,-556.95 1441.07,-529.32"/>
<polygon fill="black" stroke="black" points="1444.27,-527.91 1437.22,-520 1437.8,-530.57 1444.27,-527.91"/>
</g>
<!-- node22 -->
<g id="node31" class="node">
<title>node22</title>
<polygon fill="white" stroke="black" points="1413.77,-591.93 1413.77,-613.51 1373.48,-628.76 1316.52,-628.76 1276.23,-613.51 1276.23,-591.93 1316.52,-576.67 1373.48,-576.67 1413.77,-591.93"/>
<text text-anchor="middle" x="1345" y="-606.12" font-family="Times New Roman,serif" font-size="12.00">QaterialFonts</text>
<text text-anchor="middle" x="1345" y="-593.12" font-family="Times New Roman,serif" font-size="12.00">(Qaterial::Fonts)</text>
</g>
<!-- node7&#45;&gt;node22 -->
<g id="edge53" class="edge">
<title>node7&#45;&gt;node22</title>
<path fill="none" stroke="black" stroke-dasharray="1,5" d="M1008.28,-681.94C1063.92,-674.42 1175.15,-657.58 1267,-632.43 1274.18,-630.47 1281.63,-628.13 1288.95,-625.65"/>
<polygon fill="black" stroke="black" points="1290.53,-628.8 1298.82,-622.2 1288.22,-622.2 1290.53,-628.8"/>
</g>
<!-- node23 -->
<g id="node32" class="node">
<title>node23</title>
<polygon fill="white" stroke="black" points="1258.24,-591.93 1258.24,-613.51 1218.26,-628.76 1161.74,-628.76 1121.76,-613.51 1121.76,-591.93 1161.74,-576.67 1218.26,-576.67 1258.24,-591.93"/>
<text text-anchor="middle" x="1190" y="-606.12" font-family="Times New Roman,serif" font-size="12.00">QaterialIcons</text>
<text text-anchor="middle" x="1190" y="-593.12" font-family="Times New Roman,serif" font-size="12.00">(Qaterial::Icons)</text>
</g>
<!-- node7&#45;&gt;node23 -->
<g id="edge60" class="edge">
<title>node7&#45;&gt;node23</title>
<path fill="none" stroke="black" stroke-dasharray="1,5" d="M1008.25,-680.05C1036,-674.38 1075.31,-664.89 1108,-651.43 1121.12,-646.04 1134.68,-638.87 1146.92,-631.74"/>
<polygon fill="black" stroke="black" points="1148.77,-634.71 1155.56,-626.58 1145.18,-628.7 1148.77,-634.71"/>
</g>
<!-- node24 -->
<g id="node33" class="node">
<title>node24</title>
<polygon fill="white" stroke="black" points="1924.24,-591.93 1924.24,-613.51 1884.26,-628.76 1827.74,-628.76 1787.76,-613.51 1787.76,-591.93 1827.74,-576.67 1884.26,-576.67 1924.24,-591.93"/>
<text text-anchor="middle" x="1856" y="-606.12" font-family="Times New Roman,serif" font-size="12.00">spdlog</text>
<text text-anchor="middle" x="1856" y="-593.12" font-family="Times New Roman,serif" font-size="12.00">(spdlog::spdlog)</text>
</g>
<!-- node7&#45;&gt;node24 -->
<g id="edge70" class="edge">
<title>node7&#45;&gt;node24</title>
<path fill="none" stroke="black" d="M1008.31,-685.43C1143.54,-681.37 1628.53,-664.81 1779,-632.43 1786.55,-630.81 1794.35,-628.59 1801.96,-626.09"/>
<polygon fill="black" stroke="black" points="1803.15,-629.39 1811.46,-622.81 1800.87,-622.77 1803.15,-629.39"/>
</g>
<!-- node8&#45;&gt;node2 -->
<g id="edge18" class="edge">
<title>node8&#45;&gt;node2</title>
<path fill="none" stroke="black" stroke-dasharray="1,5" d="M972.37,-576.49C973.26,-564.39 976.19,-550.33 984,-540 991.87,-529.59 1003.65,-522.11 1015.42,-516.81"/>
<polygon fill="black" stroke="black" points="1016.83,-520.01 1024.78,-513.01 1014.2,-513.53 1016.83,-520.01"/>
</g>
<!-- node8&#45;&gt;node4 -->
<g id="edge22" class="edge">
<title>node8&#45;&gt;node4</title>
<path fill="none" stroke="black" stroke-dasharray="1,5" d="M926.31,-578.8C889.3,-560.62 838.63,-535.75 806.61,-520.03"/>
<polygon fill="black" stroke="black" points="807.82,-516.72 797.3,-515.46 804.74,-523.01 807.82,-516.72"/>
</g>
<!-- node9 -->
<g id="node18" class="node">
<title>node9</title>
<polygon fill="white" stroke="black" points="1154.24,-486.05 1156.38,-486.15 1158.5,-486.3 1160.59,-486.49 1162.65,-486.74 1164.65,-487.03 1166.6,-487.36 1168.48,-487.75 1170.3,-488.18 1172.04,-488.65 1173.69,-489.16 1175.26,-489.71 1176.73,-490.31 1178.1,-490.94 1179.37,-491.61 1180.54,-492.31 1181.59,-493.04 1182.54,-493.8 1183.37,-494.59 1184.08,-495.41 1184.68,-496.25 1185.17,-497.11 1185.54,-497.99 1185.8,-498.89 1185.95,-499.8 1185.99,-500.72 1185.93,-501.65 1185.76,-502.59 1185.49,-503.53 1185.12,-504.47 1184.66,-505.41 1184.12,-506.35 1183.49,-507.28 1182.78,-508.2 1182,-509.11 1181.15,-510.01 1180.24,-510.89 1179.26,-511.75 1178.23,-512.59 1177.15,-513.41 1176.02,-514.2 1174.86,-514.96 1173.65,-515.69 1172.41,-516.39 1171.14,-517.06 1169.84,-517.69 1168.52,-518.29 1167.18,-518.84 1165.82,-519.35 1164.45,-519.82 1163.06,-520.25 1161.67,-520.64 1160.26,-520.97 1158.85,-521.26 1157.43,-521.51 1156,-521.7 1154.58,-521.85 1153.15,-521.95 1151.72,-522 1150.28,-522 1148.85,-521.95 1147.42,-521.85 1146,-521.7 1144.57,-521.51 1143.15,-521.26 1141.74,-520.97 1140.33,-520.64 1138.94,-520.25 1137.55,-519.82 1136.18,-519.35 1134.82,-518.84 1133.48,-518.29 1132.16,-517.69 1130.86,-517.06 1129.59,-516.39 1128.35,-515.69 1127.14,-514.96 1125.98,-514.2 1124.85,-513.41 1123.77,-512.59 1122.74,-511.75 1121.76,-510.89 1120.85,-510.01 1120,-509.11 1119.22,-508.2 1118.51,-507.28 1117.88,-506.35 1117.34,-505.41 1116.88,-504.47 1116.51,-503.53 1116.24,-502.59 1116.07,-501.65 1116.01,-500.72 1116.05,-499.8 1116.2,-498.89 1116.46,-497.99 1116.83,-497.11 1117.32,-496.25 1117.92,-495.41 1118.63,-494.59 1119.46,-493.8 1120.41,-493.04 1121.46,-492.31 1122.63,-491.61 1123.9,-490.94 1125.27,-490.31 1126.74,-489.71 1128.31,-489.16 1129.96,-488.65 1131.7,-488.18 1133.52,-487.75 1135.4,-487.36 1137.35,-487.03 1139.35,-486.74 1141.41,-486.49 1143.5,-486.3 1145.62,-486.15 1147.76,-486.05 1149.92,-486 1152.08,-486 1154.24,-486.05"/>
<text text-anchor="middle" x="1151" y="-500.9" font-family="Times New Roman,serif" font-size="12.00">Qt5::rcc</text>
</g>
<!-- node8&#45;&gt;node9 -->
<g id="edge17" class="edge">
<title>node8&#45;&gt;node9</title>
<path fill="none" stroke="black" d="M981.8,-576.45C987.56,-563.58 996.4,-548.83 1009,-540 1045.62,-514.33 1065,-534.28 1108,-522 1111.16,-521.1 1114.42,-520.05 1117.65,-518.92"/>
<polygon fill="black" stroke="black" points="1119.03,-522.14 1127.18,-515.38 1116.59,-515.58 1119.03,-522.14"/>
</g>
<!-- node8&#45;&gt;node10 -->
<g id="edge21" class="edge">
<title>node8&#45;&gt;node10</title>
<path fill="none" stroke="black" stroke-dasharray="1,5" d="M991,-576.54C1001.87,-563.36 1016.92,-548.28 1034,-540 1098.79,-508.6 1124.94,-538.6 1195,-522 1199.5,-520.93 1204.17,-519.55 1208.72,-518.04"/>
<polygon fill="black" stroke="black" points="1210.16,-521.24 1218.41,-514.59 1207.81,-514.65 1210.16,-521.24"/>
</g>
<!-- node8&#45;&gt;node12 -->
<g id="edge30" class="edge">
<title>node8&#45;&gt;node12</title>
<path fill="none" stroke="black" stroke-dasharray="1,5" d="M912.97,-582.49C852.66,-563.18 761.48,-533.98 709.99,-517.49"/>
<polygon fill="black" stroke="black" points="710.83,-514.08 700.24,-514.36 708.69,-520.75 710.83,-514.08"/>
</g>
<!-- node8&#45;&gt;node15 -->
<g id="edge35" class="edge">
<title>node8&#45;&gt;node15</title>
<path fill="none" stroke="black" stroke-dasharray="1,5" d="M957.91,-576.56C949.21,-562.05 938.32,-543.89 929.69,-529.49"/>
<polygon fill="black" stroke="black" points="932.53,-527.43 924.39,-520.66 926.53,-531.03 932.53,-527.43"/>
</g>
<!-- node8&#45;&gt;node17 -->
<g id="edge42" class="edge">
<title>node8&#45;&gt;node17</title>
<path fill="none" stroke="black" stroke-dasharray="1,5" d="M1004.24,-576.58C1023.73,-561.44 1047.26,-544.29 1059,-540 1154.46,-505.09 1187.65,-543.48 1287,-522 1291.73,-520.98 1296.64,-519.59 1301.41,-518.05"/>
<polygon fill="black" stroke="black" points="1302.64,-521.33 1310.93,-514.74 1300.34,-514.72 1302.64,-521.33"/>
</g>
<!-- node8&#45;&gt;node20 -->
<g id="edge45" class="edge">
<title>node8&#45;&gt;node20</title>
<path fill="none" stroke="black" stroke-dasharray="1,5" d="M1046.71,-586.39C1068.08,-582 1091.46,-577.26 1113,-573 1231.95,-549.48 1263.86,-553.29 1381,-522 1385.75,-520.73 1390.71,-519.23 1395.56,-517.65"/>
<polygon fill="black" stroke="black" points="1396.94,-520.88 1405.29,-514.36 1394.7,-514.25 1396.94,-520.88"/>
</g>
<!-- node11 -->
<g id="node20" class="node">
<title>node11</title>
<polygon fill="white" stroke="black" points="1193.78,-257.54 1193.78,-272.46 1172.23,-283 1141.77,-283 1120.22,-272.46 1120.22,-257.54 1141.77,-247 1172.23,-247 1193.78,-257.54"/>
<polygon fill="none" stroke="black" points="1197.79,-255.05 1197.79,-274.95 1173.17,-287 1140.83,-287 1116.21,-274.95 1116.21,-255.05 1140.83,-243 1173.17,-243 1197.79,-255.05"/>
<text text-anchor="middle" x="1157" y="-261.9" font-family="Times New Roman,serif" font-size="12.00">Qt5::Gui</text>
</g>
<!-- node10&#45;&gt;node11 -->
<g id="edge20" class="edge">
<title>node10&#45;&gt;node11</title>
<path fill="none" stroke="black" stroke-dasharray="5,2" d="M1234.87,-489.39C1224.14,-465.25 1201.59,-413.22 1186,-368 1177.89,-344.47 1170.26,-317.36 1164.86,-297"/>
<polygon fill="black" stroke="black" points="1168.25,-296.1 1162.33,-287.31 1161.47,-297.87 1168.25,-296.1"/>
</g>
<!-- node11&#45;&gt;node3 -->
<g id="edge19" class="edge">
<title>node11&#45;&gt;node3</title>
<path fill="none" stroke="black" d="M1153.94,-242.83C1147.8,-204.79 1131.68,-123.14 1099,-62 1097.02,-58.3 1094.65,-54.64 1092.1,-51.13"/>
<polygon fill="black" stroke="black" points="1094.85,-48.96 1085.92,-43.26 1089.34,-53.29 1094.85,-48.96"/>
</g>
<!-- node13 -->
<g id="node22" class="node">
<title>node13</title>
<polygon fill="white" stroke="black" points="1014.77,-338.54 1014.77,-353.46 988.55,-364 951.45,-364 925.23,-353.46 925.23,-338.54 951.45,-328 988.55,-328 1014.77,-338.54"/>
<polygon fill="none" stroke="black" points="1018.79,-335.84 1018.79,-356.16 989.32,-368 950.68,-368 921.21,-356.16 921.21,-335.84 950.68,-324 989.32,-324 1018.79,-335.84"/>
<text text-anchor="middle" x="970" y="-342.9" font-family="Times New Roman,serif" font-size="12.00">Qt5::Quick</text>
</g>
<!-- node12&#45;&gt;node13 -->
<g id="edge29" class="edge">
<title>node12&#45;&gt;node13</title>
<path fill="none" stroke="black" stroke-dasharray="5,2" d="M697.01,-489.43C749.18,-462.21 866.9,-400.79 929.34,-368.21"/>
<polygon fill="black" stroke="black" points="931.26,-371.16 938.5,-363.43 928.02,-364.96 931.26,-371.16"/>
</g>
<!-- node13&#45;&gt;node3 -->
<g id="edge23" class="edge">
<title>node13&#45;&gt;node3</title>
<path fill="none" stroke="black" d="M986.99,-323.9C997.5,-308.72 1009,-287.26 1009,-266 1009,-266 1009,-266 1009,-102 1009,-81.74 1021.49,-63.14 1034.77,-49.08"/>
<polygon fill="black" stroke="black" points="1037.52,-51.28 1042.16,-41.76 1032.59,-46.31 1037.52,-51.28"/>
</g>
<!-- node13&#45;&gt;node5 -->
<g id="edge25" class="edge">
<title>node13&#45;&gt;node5</title>
<path fill="none" stroke="black" d="M969.97,-323.72C969.08,-302.09 965.24,-268.26 951,-243 943.53,-229.75 931.9,-217.95 920.52,-208.52"/>
<polygon fill="black" stroke="black" points="922.37,-205.52 912.35,-202.08 918.04,-211.02 922.37,-205.52"/>
</g>
<!-- node13&#45;&gt;node11 -->
<g id="edge24" class="edge">
<title>node13&#45;&gt;node11</title>
<path fill="none" stroke="black" d="M1005.17,-330.14C1036.57,-316.88 1082.56,-297.45 1115.69,-283.45"/>
<polygon fill="black" stroke="black" points="1117.25,-286.59 1125.1,-279.48 1114.53,-280.14 1117.25,-286.59"/>
</g>
<!-- node14 -->
<g id="node23" class="node">
<title>node14</title>
<polygon fill="white" stroke="black" points="937.94,-257.54 937.94,-272.46 901.65,-283 850.35,-283 814.06,-272.46 814.06,-257.54 850.35,-247 901.65,-247 937.94,-257.54"/>
<polygon fill="none" stroke="black" points="941.93,-254.54 941.93,-275.46 902.22,-287 849.78,-287 810.07,-275.46 810.07,-254.54 849.78,-243 902.22,-243 941.93,-254.54"/>
<text text-anchor="middle" x="876" y="-261.9" font-family="Times New Roman,serif" font-size="12.00">Qt5::QmlModels</text>
</g>
<!-- node13&#45;&gt;node14 -->
<g id="edge28" class="edge">
<title>node13&#45;&gt;node14</title>
<path fill="none" stroke="black" d="M946.76,-325.47C935.44,-315.95 921.61,-304.33 909.19,-293.9"/>
<polygon fill="black" stroke="black" points="911.18,-291 901.28,-287.24 906.68,-296.36 911.18,-291"/>
</g>
<!-- node14&#45;&gt;node3 -->
<g id="edge26" class="edge">
<title>node14&#45;&gt;node3</title>
<path fill="none" stroke="black" d="M858.27,-242.78C829.86,-206.11 781.13,-130.1 820,-81 843.33,-51.53 945.62,-35.53 1010.73,-28.16"/>
<polygon fill="black" stroke="black" points="1011.28,-31.63 1020.84,-27.06 1010.52,-24.67 1011.28,-31.63"/>
</g>
<!-- node14&#45;&gt;node5 -->
<g id="edge27" class="edge">
<title>node14&#45;&gt;node5</title>
<path fill="none" stroke="black" d="M878.68,-242.83C879.71,-234.68 880.91,-225.2 882.04,-216.3"/>
<polygon fill="black" stroke="black" points="885.53,-216.59 883.31,-206.23 878.58,-215.71 885.53,-216.59"/>
</g>
<!-- node16 -->
<g id="node25" class="node">
<title>node16</title>
<polygon fill="white" stroke="black" points="1054.75,-419.54 1054.75,-434.46 1010.96,-445 949.04,-445 905.25,-434.46 905.25,-419.54 949.04,-409 1010.96,-409 1054.75,-419.54"/>
<polygon fill="none" stroke="black" points="1058.75,-416.39 1058.75,-437.61 1011.44,-449 948.56,-449 901.25,-437.61 901.25,-416.39 948.56,-405 1011.44,-405 1058.75,-416.39"/>
<text text-anchor="middle" x="980" y="-423.9" font-family="Times New Roman,serif" font-size="12.00">Qt5::QuickControls2</text>
</g>
<!-- node15&#45;&gt;node16 -->
<g id="edge34" class="edge">
<title>node15&#45;&gt;node16</title>
<path fill="none" stroke="black" stroke-dasharray="5,2" d="M926.92,-489.24C934.77,-480.19 945.33,-468 954.97,-456.89"/>
<polygon fill="black" stroke="black" points="957.86,-458.89 961.77,-449.04 952.57,-454.3 957.86,-458.89"/>
</g>
<!-- node16&#45;&gt;node3 -->
<g id="edge31" class="edge">
<title>node16&#45;&gt;node3</title>
<path fill="none" stroke="black" d="M1011.93,-405.06C1029.19,-391 1047,-370.74 1047,-347 1047,-347 1047,-347 1047,-102 1047,-85.88 1050.79,-68.41 1054.98,-54.01"/>
<polygon fill="black" stroke="black" points="1058.42,-54.72 1058.05,-44.13 1051.74,-52.64 1058.42,-54.72"/>
</g>
<!-- node16&#45;&gt;node11 -->
<g id="edge32" class="edge">
<title>node16&#45;&gt;node11</title>
<path fill="none" stroke="black" d="M1024.05,-408C1035.69,-402.2 1047.83,-395.13 1058,-387 1090.76,-360.81 1120.04,-322.15 1138.11,-295.62"/>
<polygon fill="black" stroke="black" points="1141.14,-297.38 1143.8,-287.12 1135.33,-293.48 1141.14,-297.38"/>
</g>
<!-- node16&#45;&gt;node13 -->
<g id="edge33" class="edge">
<title>node16&#45;&gt;node13</title>
<path fill="none" stroke="black" d="M977.32,-404.83C976.29,-396.68 975.09,-387.2 973.96,-378.3"/>
<polygon fill="black" stroke="black" points="977.42,-377.71 972.69,-368.23 970.47,-378.59 977.42,-377.71"/>
</g>
<!-- node18 -->
<g id="node27" class="node">
<title>node18</title>
<polygon fill="white" stroke="black" points="1350.15,-419.54 1350.15,-434.46 1328.39,-445 1297.61,-445 1275.85,-434.46 1275.85,-419.54 1297.61,-409 1328.39,-409 1350.15,-419.54"/>
<polygon fill="none" stroke="black" points="1354.13,-417.03 1354.13,-436.97 1329.3,-449 1296.7,-449 1271.87,-436.97 1271.87,-417.03 1296.7,-405 1329.3,-405 1354.13,-417.03"/>
<text text-anchor="middle" x="1313" y="-423.9" font-family="Times New Roman,serif" font-size="12.00">Qt5::Svg</text>
</g>
<!-- node17&#45;&gt;node18 -->
<g id="edge41" class="edge">
<title>node17&#45;&gt;node18</title>
<path fill="none" stroke="black" stroke-dasharray="5,2" d="M1330.15,-489.24C1327.76,-480.72 1324.6,-469.41 1321.63,-458.84"/>
<polygon fill="black" stroke="black" points="1324.96,-457.72 1318.89,-449.04 1318.22,-459.61 1324.96,-457.72"/>
</g>
<!-- node18&#45;&gt;node3 -->
<g id="edge36" class="edge">
<title>node18&#45;&gt;node3</title>
<path fill="none" stroke="black" d="M1334.45,-407.14C1348.77,-392.38 1365,-370.48 1365,-347 1365,-347 1365,-347 1365,-102 1365,-52.21 1208.07,-33.1 1121.59,-26.35"/>
<polygon fill="black" stroke="black" points="1121.65,-22.84 1111.41,-25.58 1121.12,-29.82 1121.65,-22.84"/>
</g>
<!-- node18&#45;&gt;node11 -->
<g id="edge37" class="edge">
<title>node18&#45;&gt;node11</title>
<path fill="none" stroke="black" d="M1282.14,-412.02C1262.15,-401.87 1236.5,-386.67 1218,-368 1206.81,-356.71 1186.99,-322.06 1172.99,-296.26"/>
<polygon fill="black" stroke="black" points="1175.94,-294.36 1168.12,-287.22 1169.78,-297.68 1175.94,-294.36"/>
</g>
<!-- node19 -->
<g id="node28" class="node">
<title>node19</title>
<polygon fill="white" stroke="black" points="1333.13,-338.54 1333.13,-353.46 1303.18,-364 1260.82,-364 1230.87,-353.46 1230.87,-338.54 1260.82,-328 1303.18,-328 1333.13,-338.54"/>
<polygon fill="none" stroke="black" points="1337.11,-335.71 1337.11,-356.29 1303.86,-368 1260.14,-368 1226.89,-356.29 1226.89,-335.71 1260.14,-324 1303.86,-324 1337.11,-335.71"/>
<text text-anchor="middle" x="1282" y="-342.9" font-family="Times New Roman,serif" font-size="12.00">Qt5::Widgets</text>
</g>
<!-- node18&#45;&gt;node19 -->
<g id="edge40" class="edge">
<title>node18&#45;&gt;node19</title>
<path fill="none" stroke="black" d="M1304.69,-404.83C1301.43,-396.51 1297.61,-386.79 1294.05,-377.72"/>
<polygon fill="black" stroke="black" points="1297.24,-376.26 1290.33,-368.23 1290.73,-378.82 1297.24,-376.26"/>
</g>
<!-- node19&#45;&gt;node3 -->
<g id="edge38" class="edge">
<title>node19&#45;&gt;node3</title>
<path fill="none" stroke="black" d="M1275.31,-323.78C1270.92,-308 1266,-285.87 1266,-266 1266,-266 1266,-266 1266,-102 1266,-70.77 1180.56,-46.61 1121.37,-33.63"/>
<polygon fill="black" stroke="black" points="1121.89,-30.16 1111.38,-31.49 1120.43,-37.01 1121.89,-30.16"/>
</g>
<!-- node19&#45;&gt;node11 -->
<g id="edge39" class="edge">
<title>node19&#45;&gt;node11</title>
<path fill="none" stroke="black" d="M1252.69,-326.48C1234.42,-314.93 1210.82,-300.01 1191.62,-287.88"/>
<polygon fill="black" stroke="black" points="1193.47,-284.91 1183.15,-282.53 1189.73,-290.83 1193.47,-284.91"/>
</g>
<!-- node21 -->
<g id="node30" class="node">
<title>node21</title>
<polygon fill="white" stroke="black" points="1461.78,-419.54 1461.78,-434.46 1439.06,-445 1406.94,-445 1384.22,-434.46 1384.22,-419.54 1406.94,-409 1439.06,-409 1461.78,-419.54"/>
<polygon fill="none" stroke="black" points="1465.79,-416.99 1465.79,-437.01 1439.95,-449 1406.05,-449 1380.21,-437.01 1380.21,-416.99 1406.05,-405 1439.95,-405 1465.79,-416.99"/>
<text text-anchor="middle" x="1423" y="-423.9" font-family="Times New Roman,serif" font-size="12.00">Qt5::Xml</text>
</g>
<!-- node20&#45;&gt;node21 -->
<g id="edge44" class="edge">
<title>node20&#45;&gt;node21</title>
<path fill="none" stroke="black" stroke-dasharray="5,2" d="M1428.72,-489.24C1427.93,-480.81 1426.89,-469.65 1425.91,-459.17"/>
<polygon fill="black" stroke="black" points="1429.38,-458.67 1424.96,-449.04 1422.41,-459.32 1429.38,-458.67"/>
</g>
<!-- node21&#45;&gt;node3 -->
<g id="edge43" class="edge">
<title>node21&#45;&gt;node3</title>
<path fill="none" stroke="black" d="M1420.11,-404.92C1418.18,-389.03 1416,-366.69 1416,-347 1416,-347 1416,-347 1416,-102 1416,-42.36 1220.2,-27.74 1121.5,-24.16"/>
<polygon fill="black" stroke="black" points="1121.51,-20.66 1111.4,-23.82 1121.27,-27.65 1121.51,-20.66"/>
</g>
<!-- node22&#45;&gt;node2 -->
<g id="edge48" class="edge">
<title>node22&#45;&gt;node2</title>
<path fill="none" stroke="black" stroke-dasharray="1,5" d="M1297.27,-583.76C1287.3,-580.12 1276.83,-576.37 1267,-573 1196.41,-548.77 1177.96,-545.13 1107,-522 1102.42,-520.51 1097.61,-518.92 1092.85,-517.35"/>
<polygon fill="black" stroke="black" points="1093.83,-513.99 1083.24,-514.15 1091.63,-520.63 1093.83,-513.99"/>
</g>
<!-- node22&#45;&gt;node4 -->
<g id="edge50" class="edge">
<title>node22&#45;&gt;node4</title>
<path fill="none" stroke="black" stroke-dasharray="1,5" d="M1299.78,-583.01C1289.17,-579.2 1277.81,-575.57 1267,-573 1170.82,-550.09 921.39,-544 825,-522 819.97,-520.85 814.74,-519.37 809.65,-517.75"/>
<polygon fill="black" stroke="black" points="810.71,-514.42 800.12,-514.54 808.48,-521.05 810.71,-514.42"/>
</g>
<!-- node22&#45;&gt;node9 -->
<g id="edge47" class="edge">
<title>node22&#45;&gt;node9</title>
<path fill="none" stroke="black" d="M1314.78,-577.14C1298.22,-564.63 1276.86,-549.99 1256,-540 1230.51,-527.79 1221.76,-531.1 1195,-522 1191.72,-520.89 1188.33,-519.67 1184.94,-518.43"/>
<polygon fill="black" stroke="black" points="1186.13,-515.14 1175.54,-514.89 1183.66,-521.69 1186.13,-515.14"/>
</g>
<!-- node22&#45;&gt;node10 -->
<g id="edge49" class="edge">
<title>node22&#45;&gt;node10</title>
<path fill="none" stroke="black" stroke-dasharray="1,5" d="M1319.42,-576.51C1307.82,-565.21 1293.84,-551.8 1281,-540 1275.3,-534.76 1269.04,-529.2 1263.2,-524.09"/>
<polygon fill="black" stroke="black" points="1265.43,-521.39 1255.59,-517.47 1260.84,-526.67 1265.43,-521.39"/>
</g>
<!-- node22&#45;&gt;node17 -->
<g id="edge51" class="edge">
<title>node22&#45;&gt;node17</title>
<path fill="none" stroke="black" stroke-dasharray="1,5" d="M1342.14,-576.56C1340.57,-562.73 1338.62,-545.59 1337.02,-531.55"/>
<polygon fill="black" stroke="black" points="1340.49,-531.06 1335.88,-521.52 1333.53,-531.86 1340.49,-531.06"/>
</g>
<!-- node22&#45;&gt;node20 -->
<g id="edge52" class="edge">
<title>node22&#45;&gt;node20</title>
<path fill="none" stroke="black" stroke-dasharray="1,5" d="M1367.11,-576.56C1380.89,-560.88 1398.42,-540.94 1411.47,-526.09"/>
<polygon fill="black" stroke="black" points="1414.23,-528.25 1418.2,-518.42 1408.97,-523.63 1414.23,-528.25"/>
</g>
<!-- node23&#45;&gt;node2 -->
<g id="edge55" class="edge">
<title>node23&#45;&gt;node2</title>
<path fill="none" stroke="black" stroke-dasharray="1,5" d="M1157.22,-578.06C1133.79,-561.15 1102.74,-538.73 1081.23,-523.21"/>
<polygon fill="black" stroke="black" points="1083.09,-520.24 1072.93,-517.22 1078.99,-525.91 1083.09,-520.24"/>
</g>
<!-- node23&#45;&gt;node4 -->
<g id="edge57" class="edge">
<title>node23&#45;&gt;node4</title>
<path fill="none" stroke="black" stroke-dasharray="1,5" d="M1133.96,-587.21C1115.25,-582.5 1094.27,-577.37 1075,-573 964.41,-547.92 934.36,-551.98 825,-522 820.31,-520.71 815.41,-519.21 810.61,-517.65"/>
<polygon fill="black" stroke="black" points="811.57,-514.28 800.98,-514.38 809.33,-520.91 811.57,-514.28"/>
</g>
<!-- node23&#45;&gt;node9 -->
<g id="edge54" class="edge">
<title>node23&#45;&gt;node9</title>
<path fill="none" stroke="black" d="M1179.86,-576.56C1174.23,-562.6 1167.23,-545.25 1161.54,-531.14"/>
<polygon fill="black" stroke="black" points="1164.65,-529.49 1157.66,-521.52 1158.16,-532.11 1164.65,-529.49"/>
</g>
<!-- node23&#45;&gt;node10 -->
<g id="edge56" class="edge">
<title>node23&#45;&gt;node10</title>
<path fill="none" stroke="black" stroke-dasharray="1,5" d="M1195.04,-576.66C1198.04,-565.02 1202.54,-551.29 1209,-540 1212.04,-534.69 1216.01,-529.51 1220.11,-524.84"/>
<polygon fill="black" stroke="black" points="1222.7,-527.2 1227.01,-517.52 1217.61,-522.4 1222.7,-527.2"/>
</g>
<!-- node23&#45;&gt;node17 -->
<g id="edge58" class="edge">
<title>node23&#45;&gt;node17</title>
<path fill="none" stroke="black" stroke-dasharray="1,5" d="M1224.13,-578.8C1249.94,-561.46 1284.83,-538.03 1308.31,-522.26"/>
<polygon fill="black" stroke="black" points="1310.35,-525.1 1316.7,-516.62 1306.45,-519.29 1310.35,-525.1"/>
</g>
<!-- node23&#45;&gt;node20 -->
<g id="edge59" class="edge">
<title>node23&#45;&gt;node20</title>
<path fill="none" stroke="black" stroke-dasharray="1,5" d="M1235.71,-583.3C1282.67,-564.37 1354.67,-535.36 1396.56,-518.47"/>
<polygon fill="black" stroke="black" points="1398.06,-521.64 1406.03,-514.66 1395.45,-515.15 1398.06,-521.64"/>
</g>
<!-- node25 -->
<g id="node34" class="node">
<title>node25</title>
<polygon fill="white" stroke="black" points="1771.07,-509.56 1699,-522 1626.93,-509.56 1654.46,-489.44 1743.54,-489.44 1771.07,-509.56"/>
<text text-anchor="middle" x="1699" y="-500.9" font-family="Times New Roman,serif" font-size="12.00">Threads::Threads</text>
</g>
<!-- node24&#45;&gt;node25 -->
<g id="edge69" class="edge">
<title>node24&#45;&gt;node25</title>
<path fill="none" stroke="black" d="M1819.98,-579.53C1792.61,-562.67 1755.38,-539.73 1729.47,-523.77"/>
<polygon fill="black" stroke="black" points="1731.17,-520.71 1720.82,-518.44 1727.5,-526.67 1731.17,-520.71"/>
</g>
<!-- node26 -->
<g id="node35" class="node">
<title>node26</title>
<polygon fill="white" stroke="black" points="1770.21,-611.97 1639,-632.65 1507.79,-611.97 1557.91,-578.5 1720.09,-578.5 1770.21,-611.97"/>
<text text-anchor="middle" x="1639" y="-606.12" font-family="Times New Roman,serif" font-size="12.00">spdlog_header_only</text>
<text text-anchor="middle" x="1639" y="-593.12" font-family="Times New Roman,serif" font-size="12.00">(spdlog::spdlog_header_only)</text>
</g>
<!-- node26&#45;&gt;node25 -->
<g id="edge71" class="edge">
<title>node26&#45;&gt;node25</title>
<path fill="none" stroke="black" stroke-dasharray="5,2" d="M1653.52,-578.3C1662.72,-563.49 1674.57,-544.37 1683.88,-529.38"/>
<polygon fill="black" stroke="black" points="1687,-530.99 1689.29,-520.65 1681.05,-527.3 1687,-530.99"/>
</g>
</g>
</svg>
