<?xml version="1.0" encoding="UTF-8" standalone="no"?>
<!DOCTYPE svg PUBLIC "-//W3C//DTD SVG 1.1//EN"
 "http://www.w3.org/Graphics/SVG/1.1/DTD/svg11.dtd">
<!-- Generated by graphviz version 2.46.0 (20210118.1747)
 -->
<!-- Title: Qaterial Pages: 1 -->
<svg width="1483pt" height="753pt"
 viewBox="0.00 0.00 1482.72 753.07" xmlns="http://www.w3.org/2000/svg" xmlns:xlink="http://www.w3.org/1999/xlink">
<g id="graph0" class="graph" transform="scale(1 1) rotate(0) translate(4 749.07)">
<title>Qaterial</title>
<g id="clust1" class="cluster">
<title>clusterLegend</title>
<polygon fill="transparent" stroke="black" points="8,-478 8,-737.07 521,-737.07 521,-478 8,-478"/>
<text text-anchor="middle" x="264.5" y="-721.87" font-family="Times New Roman,serif" font-size="14.00">Legend</text>
</g>
<!-- legendNode0 -->
<g id="node1" class="node">
<title>legendNode0</title>
<polygon fill="white" stroke="black" points="274.98,-670.12 277.62,-670.22 280.23,-670.36 282.8,-670.56 285.32,-670.8 287.79,-671.09 290.18,-671.43 292.5,-671.82 294.74,-672.24 296.87,-672.71 298.91,-673.23 300.84,-673.78 302.65,-674.38 304.34,-675.01 305.9,-675.67 307.33,-676.37 308.63,-677.11 309.79,-677.87 310.81,-678.66 311.69,-679.48 312.43,-680.32 313.03,-681.18 313.48,-682.06 313.8,-682.95 313.99,-683.86 314.04,-684.79 313.95,-685.72 313.75,-686.65 313.41,-687.6 312.97,-688.54 312.4,-689.48 311.73,-690.42 310.96,-691.35 310.09,-692.27 309.13,-693.18 308.08,-694.08 306.96,-694.96 305.76,-695.82 304.49,-696.66 303.16,-697.48 301.78,-698.27 300.34,-699.03 298.86,-699.76 297.33,-700.46 295.77,-701.13 294.17,-701.76 292.55,-702.35 290.9,-702.91 289.23,-703.42 287.54,-703.89 285.84,-704.32 284.12,-704.7 282.39,-705.04 280.65,-705.33 278.91,-705.58 277.15,-705.77 275.4,-705.92 273.64,-706.02 271.88,-706.07 270.12,-706.07 268.36,-706.02 266.6,-705.92 264.85,-705.77 263.09,-705.58 261.35,-705.33 259.61,-705.04 257.88,-704.7 256.16,-704.32 254.46,-703.89 252.77,-703.42 251.1,-702.91 249.45,-702.35 247.83,-701.76 246.23,-701.13 244.67,-700.46 243.14,-699.76 241.66,-699.03 240.22,-698.27 238.84,-697.48 237.51,-696.66 236.24,-695.82 235.04,-694.96 233.92,-694.08 232.87,-693.18 231.91,-692.27 231.04,-691.35 230.27,-690.42 229.6,-689.48 229.03,-688.54 228.59,-687.6 228.25,-686.65 228.05,-685.72 227.96,-684.79 228.01,-683.86 228.2,-682.95 228.52,-682.06 228.97,-681.18 229.57,-680.32 230.31,-679.48 231.19,-678.66 232.21,-677.87 233.37,-677.11 234.67,-676.37 236.1,-675.67 237.66,-675.01 239.35,-674.38 241.16,-673.78 243.09,-673.23 245.13,-672.71 247.26,-672.24 249.5,-671.82 251.82,-671.43 254.21,-671.09 256.68,-670.8 259.2,-670.56 261.77,-670.36 264.38,-670.22 267.02,-670.12 269.67,-670.07 272.33,-670.07 274.98,-670.12"/>
<text text-anchor="middle" x="271" y="-684.97" font-family="Times New Roman,serif" font-size="12.00">Executable</text>
</g>
<!-- legendNode1 -->
<g id="node2" class="node">
<title>legendNode1</title>
<polygon fill="white" stroke="black" points="119.94,-591.57 119.94,-606.48 89.52,-617.02 46.48,-617.02 16.06,-606.48 16.06,-591.57 46.48,-581.02 89.52,-581.02 119.94,-591.57"/>
<text text-anchor="middle" x="68" y="-595.92" font-family="Times New Roman,serif" font-size="12.00">Static Library</text>
</g>
<!-- legendNode0&#45;&gt;legendNode1 -->
<g id="edge1" class="edge">
<title>legendNode0&#45;&gt;legendNode1</title>
<path fill="none" stroke="black" d="M240.17,-673.85C205.2,-658.85 148.01,-634.33 109.23,-617.7"/>
<polygon fill="black" stroke="black" points="110.36,-614.38 99.79,-613.65 107.6,-620.81 110.36,-614.38"/>
</g>
<!-- legendNode2 -->
<g id="node3" class="node">
<title>legendNode2</title>
<polygon fill="white" stroke="black" points="255.76,-591.57 255.76,-606.48 222.51,-617.02 175.49,-617.02 142.24,-606.48 142.24,-591.57 175.49,-581.02 222.51,-581.02 255.76,-591.57"/>
<polygon fill="none" stroke="black" points="259.77,-588.64 259.77,-609.4 223.13,-621.02 174.87,-621.02 138.23,-609.4 138.23,-588.64 174.87,-577.02 223.13,-577.02 259.77,-588.64"/>
<text text-anchor="middle" x="199" y="-595.92" font-family="Times New Roman,serif" font-size="12.00">Shared Library</text>
</g>
<!-- legendNode0&#45;&gt;legendNode2 -->
<g id="edge2" class="edge">
<title>legendNode0&#45;&gt;legendNode2</title>
<path fill="none" stroke="black" d="M257.46,-670.69C247.79,-659 234.52,-642.96 223.06,-629.11"/>
<polygon fill="black" stroke="black" points="225.64,-626.74 216.57,-621.26 220.25,-631.2 225.64,-626.74"/>
</g>
<!-- legendNode3 -->
<g id="node4" class="node">
<title>legendNode3</title>
<polygon fill="white" stroke="black" points="402.75,-591.57 402.75,-606.48 368.34,-617.02 319.66,-617.02 285.25,-606.48 285.25,-591.57 319.66,-581.02 368.34,-581.02 402.75,-591.57"/>
<polygon fill="none" stroke="black" points="406.76,-588.61 406.76,-609.43 368.94,-621.02 319.06,-621.02 281.24,-609.43 281.24,-588.61 319.06,-577.02 368.94,-577.02 406.76,-588.61"/>
<polygon fill="none" stroke="black" points="410.77,-585.65 410.77,-612.39 369.54,-625.02 318.46,-625.02 277.23,-612.39 277.23,-585.65 318.46,-573.02 369.54,-573.02 410.77,-585.65"/>
<text text-anchor="middle" x="344" y="-595.92" font-family="Times New Roman,serif" font-size="12.00">Module Library</text>
</g>
<!-- legendNode0&#45;&gt;legendNode3 -->
<!-- legendNode7 -->
<g id="node8" class="node">
<title>legendNode7</title>
<polygon fill="white" stroke="black" points="513,-617.02 429,-617.02 429,-581.02 513,-581.02 513,-617.02"/>
<text text-anchor="middle" x="471" y="-595.92" font-family="Times New Roman,serif" font-size="12.00">Custom Target</text>
</g>
<!-- legendNode0&#45;&gt;legendNode7 -->
<!-- legendNode4 -->
<g id="node5" class="node">
<title>legendNode4</title>
<polygon fill="white" stroke="black" points="156.01,-509.56 86,-522 15.99,-509.56 42.73,-489.44 129.27,-489.44 156.01,-509.56"/>
<text text-anchor="middle" x="86" y="-500.9" font-family="Times New Roman,serif" font-size="12.00">Interface Library</text>
</g>
<!-- legendNode1&#45;&gt;legendNode4 -->
<g id="edge4" class="edge">
<title>legendNode1&#45;&gt;legendNode4</title>
<path fill="none" stroke="black" stroke-dasharray="5,2" d="M71.3,-580.96C73.96,-567.24 77.74,-547.71 80.8,-531.88"/>
<polygon fill="black" stroke="black" points="84.32,-532.12 82.78,-521.64 77.44,-530.79 84.32,-532.12"/>
<text text-anchor="middle" x="104.5" y="-543.8" font-family="Times New Roman,serif" font-size="14.00">Interface</text>
</g>
<!-- legendNode5 -->
<g id="node6" class="node">
<title>legendNode5</title>
<polygon fill="white" stroke="black" points="293.92,-504 263.96,-522 204.04,-522 174.08,-504 204.04,-486 263.96,-486 293.92,-504"/>
<text text-anchor="middle" x="234" y="-500.9" font-family="Times New Roman,serif" font-size="12.00">Object Library</text>
</g>
<!-- legendNode2&#45;&gt;legendNode5 -->
<g id="edge5" class="edge">
<title>legendNode2&#45;&gt;legendNode5</title>
<path fill="none" stroke="black" stroke-dasharray="1,5" d="M206.94,-576.91C211.99,-563.5 218.57,-546.02 223.97,-531.65"/>
<polygon fill="black" stroke="black" points="227.25,-532.88 227.49,-522.29 220.7,-530.42 227.25,-532.88"/>
<text text-anchor="middle" x="240.5" y="-543.8" font-family="Times New Roman,serif" font-size="14.00">Private</text>
</g>
<!-- legendNode6 -->
<g id="node7" class="node">
<title>legendNode6</title>
<polygon fill="white" stroke="black" points="444.05,-499.99 430.97,-515.22 378,-522 325.03,-515.22 311.95,-499.99 348.6,-487.78 407.4,-487.78 444.05,-499.99"/>
<text text-anchor="middle" x="378" y="-500.9" font-family="Times New Roman,serif" font-size="12.00">Unknown Library</text>
</g>
<!-- legendNode3&#45;&gt;legendNode6 -->
<g id="edge6" class="edge">
<title>legendNode3&#45;&gt;legendNode6</title>
<path fill="none" stroke="black" d="M353.29,-572.6C358.01,-559.7 363.73,-544.05 368.48,-531.06"/>
<polygon fill="black" stroke="black" points="371.89,-531.9 372.04,-521.31 365.32,-529.5 371.89,-531.9"/>
</g>
<!-- node0 -->
<g id="node9" class="node">
<title>node0</title>
<polygon fill="white" stroke="black" points="829.64,-588.23 829.64,-609.81 791.19,-625.07 736.81,-625.07 698.36,-609.81 698.36,-588.23 736.81,-572.98 791.19,-572.98 829.64,-588.23"/>
<text text-anchor="middle" x="764" y="-602.42" font-family="Times New Roman,serif" font-size="12.00">QOlm</text>
<text text-anchor="middle" x="764" y="-589.42" font-family="Times New Roman,serif" font-size="12.00">(QOlm::QOlm)</text>
</g>
<!-- node1 -->
<g id="node10" class="node">
<title>node1</title>
<polygon fill="white" stroke="black" points="571.6,-486.05 573.98,-486.15 576.33,-486.3 578.65,-486.49 580.93,-486.74 583.16,-487.03 585.32,-487.36 587.42,-487.75 589.43,-488.18 591.36,-488.65 593.2,-489.16 594.94,-489.71 596.57,-490.31 598.1,-490.94 599.51,-491.61 600.8,-492.31 601.97,-493.04 603.02,-493.8 603.94,-494.59 604.74,-495.41 605.4,-496.25 605.95,-497.11 606.36,-497.99 606.65,-498.89 606.81,-499.8 606.86,-500.72 606.78,-501.65 606.6,-502.59 606.3,-503.53 605.89,-504.47 605.38,-505.41 604.78,-506.35 604.08,-507.28 603.3,-508.2 602.43,-509.11 601.48,-510.01 600.47,-510.89 599.39,-511.75 598.24,-512.59 597.04,-513.41 595.79,-514.2 594.49,-514.96 593.15,-515.69 591.77,-516.39 590.36,-517.06 588.92,-517.69 587.46,-518.29 585.97,-518.84 584.46,-519.35 582.94,-519.82 581.4,-520.25 579.84,-520.64 578.28,-520.97 576.71,-521.26 575.14,-521.51 573.56,-521.7 571.97,-521.85 570.38,-521.95 568.79,-522 567.21,-522 565.62,-521.95 564.03,-521.85 562.44,-521.7 560.86,-521.51 559.29,-521.26 557.72,-520.97 556.16,-520.64 554.6,-520.25 553.06,-519.82 551.54,-519.35 550.03,-518.84 548.54,-518.29 547.08,-517.69 545.64,-517.06 544.23,-516.39 542.85,-515.69 541.51,-514.96 540.21,-514.2 538.96,-513.41 537.76,-512.59 536.61,-511.75 535.53,-510.89 534.52,-510.01 533.57,-509.11 532.7,-508.2 531.92,-507.28 531.22,-506.35 530.62,-505.41 530.11,-504.47 529.7,-503.53 529.4,-502.59 529.22,-501.65 529.14,-500.72 529.19,-499.8 529.35,-498.89 529.64,-497.99 530.05,-497.11 530.6,-496.25 531.26,-495.41 532.06,-494.59 532.98,-493.8 534.03,-493.04 535.2,-492.31 536.49,-491.61 537.9,-490.94 539.43,-490.31 541.06,-489.71 542.8,-489.16 544.64,-488.65 546.57,-488.18 548.58,-487.75 550.68,-487.36 552.84,-487.03 555.07,-486.74 557.35,-486.49 559.67,-486.3 562.02,-486.15 564.4,-486.05 566.8,-486 569.2,-486 571.6,-486.05"/>
<text text-anchor="middle" x="568" y="-500.9" font-family="Times New Roman,serif" font-size="12.00">Qt5::moc</text>
</g>
<!-- node0&#45;&gt;node1 -->
<g id="edge8" class="edge">
<title>node0&#45;&gt;node1</title>
<path fill="none" stroke="black" d="M722.43,-578.29C686.33,-561.16 634.73,-536.67 601.29,-520.8"/>
<polygon fill="black" stroke="black" points="602.49,-517.49 591.95,-516.37 599.49,-523.82 602.49,-517.49"/>
</g>
<!-- node2 -->
<g id="node11" class="node">
<title>node2</title>
<polygon fill="white" stroke="black" points="1098.72,-509.56 1056,-522 1013.28,-509.56 1029.6,-489.44 1082.4,-489.44 1098.72,-509.56"/>
<text text-anchor="middle" x="1056" y="-500.9" font-family="Times New Roman,serif" font-size="12.00">Qt::Core</text>
</g>
<!-- node0&#45;&gt;node2 -->
<g id="edge10" class="edge">
<title>node0&#45;&gt;node2</title>
<path fill="none" stroke="black" d="M814.61,-582.14C863.21,-566.85 938.68,-543.02 1004,-522 1008.85,-520.44 1013.95,-518.79 1018.98,-517.15"/>
<polygon fill="black" stroke="black" points="1020.07,-520.48 1028.49,-514.05 1017.9,-513.82 1020.07,-520.48"/>
</g>
<!-- node4 -->
<g id="node13" class="node">
<title>node4</title>
<polygon fill="white" stroke="black" points="995.16,-509.56 955,-522 914.84,-509.56 930.18,-489.44 979.82,-489.44 995.16,-509.56"/>
<text text-anchor="middle" x="955" y="-500.9" font-family="Times New Roman,serif" font-size="12.00">Qt::Qml</text>
</g>
<!-- node0&#45;&gt;node4 -->
<g id="edge15" class="edge">
<title>node0&#45;&gt;node4</title>
<path fill="none" stroke="black" d="M792.84,-573.41C807.42,-561.96 825.83,-548.94 844,-540 869.36,-527.52 878.06,-530.55 905,-522 909.67,-520.52 914.57,-518.91 919.4,-517.3"/>
<polygon fill="black" stroke="black" points="920.76,-520.54 929.12,-514.03 918.52,-513.91 920.76,-520.54"/>
</g>
<!-- node3 -->
<g id="node12" class="node">
<title>node3</title>
<polygon fill="white" stroke="black" points="1084.14,-14.54 1084.14,-29.46 1060.04,-40 1025.96,-40 1001.86,-29.46 1001.86,-14.54 1025.96,-4 1060.04,-4 1084.14,-14.54"/>
<polygon fill="none" stroke="black" points="1088.12,-11.92 1088.12,-32.08 1060.87,-44 1025.13,-44 997.88,-32.08 997.88,-11.92 1025.13,0 1060.87,0 1088.12,-11.92"/>
<text text-anchor="middle" x="1043" y="-18.9" font-family="Times New Roman,serif" font-size="12.00">Qt5::Core</text>
</g>
<!-- node2&#45;&gt;node3 -->
<g id="edge9" class="edge">
<title>node2&#45;&gt;node3</title>
<path fill="none" stroke="black" stroke-dasharray="5,2" d="M1058.65,-489.24C1061.31,-474.24 1065,-449.51 1065,-428 1065,-428 1065,-428 1065,-102 1065,-85.57 1060.53,-67.91 1055.62,-53.46"/>
<polygon fill="black" stroke="black" points="1058.9,-52.23 1052.2,-44.02 1052.32,-54.61 1058.9,-52.23"/>
</g>
<!-- node5 -->
<g id="node14" class="node">
<title>node5</title>
<polygon fill="white" stroke="black" points="983.14,-176.54 983.14,-191.46 960.21,-202 927.79,-202 904.86,-191.46 904.86,-176.54 927.79,-166 960.21,-166 983.14,-176.54"/>
<polygon fill="none" stroke="black" points="987.12,-173.98 987.12,-194.02 961.08,-206 926.92,-206 900.88,-194.02 900.88,-173.98 926.92,-162 961.08,-162 987.12,-173.98"/>
<text text-anchor="middle" x="944" y="-180.9" font-family="Times New Roman,serif" font-size="12.00">Qt5::Qml</text>
</g>
<!-- node4&#45;&gt;node5 -->
<g id="edge14" class="edge">
<title>node4&#45;&gt;node5</title>
<path fill="none" stroke="black" stroke-dasharray="5,2" d="M955.13,-489.4C955.52,-449.08 956.63,-326.6 957,-225 957,-224.56 957.07,-224.44 957,-224 956.56,-221.32 955.97,-218.57 955.28,-215.84"/>
<polygon fill="black" stroke="black" points="958.6,-214.75 952.42,-206.14 951.89,-216.73 958.6,-214.75"/>
</g>
<!-- node5&#45;&gt;node3 -->
<g id="edge11" class="edge">
<title>node5&#45;&gt;node3</title>
<path fill="none" stroke="black" d="M928.27,-162C914.09,-140.28 897.76,-106.11 914,-81 930.39,-55.66 960.78,-41.28 987.94,-33.18"/>
<polygon fill="black" stroke="black" points="989.06,-36.5 997.77,-30.47 987.2,-29.76 989.06,-36.5"/>
</g>
<!-- node6 -->
<g id="node15" class="node">
<title>node6</title>
<polygon fill="white" stroke="black" points="1033.12,-95.54 1033.12,-110.46 1002,-121 958,-121 926.88,-110.46 926.88,-95.54 958,-85 1002,-85 1033.12,-95.54"/>
<polygon fill="none" stroke="black" points="1037.11,-92.67 1037.11,-113.33 1002.66,-125 957.34,-125 922.89,-113.33 922.89,-92.67 957.34,-81 1002.66,-81 1037.11,-92.67"/>
<text text-anchor="middle" x="980" y="-99.9" font-family="Times New Roman,serif" font-size="12.00">Qt5::Network</text>
</g>
<!-- node5&#45;&gt;node6 -->
<g id="edge13" class="edge">
<title>node5&#45;&gt;node6</title>
<path fill="none" stroke="black" d="M953.65,-161.83C957.48,-153.42 961.96,-143.58 966.13,-134.43"/>
<polygon fill="black" stroke="black" points="969.36,-135.78 970.33,-125.23 962.99,-132.88 969.36,-135.78"/>
</g>
<!-- node6&#45;&gt;node3 -->
<g id="edge12" class="edge">
<title>node6&#45;&gt;node3</title>
<path fill="none" stroke="black" d="M996.88,-80.83C1003.87,-72.06 1012.1,-61.75 1019.65,-52.28"/>
<polygon fill="black" stroke="black" points="1022.57,-54.23 1026.07,-44.23 1017.1,-49.87 1022.57,-54.23"/>
</g>
<!-- node7 -->
<g id="node16" class="node">
<title>node7</title>
<polygon fill="white" stroke="black" points="1009.1,-677.28 1009.1,-698.86 963.94,-714.11 900.06,-714.11 854.9,-698.86 854.9,-677.28 900.06,-662.02 963.94,-662.02 1009.1,-677.28"/>
<text text-anchor="middle" x="932" y="-691.47" font-family="Times New Roman,serif" font-size="12.00">Qaterial</text>
<text text-anchor="middle" x="932" y="-678.47" font-family="Times New Roman,serif" font-size="12.00">(Qaterial::Qaterial)</text>
</g>
<!-- node7&#45;&gt;node0 -->
<g id="edge16" class="edge">
<title>node7&#45;&gt;node0</title>
<path fill="none" stroke="black" stroke-dasharray="1,5" d="M887.92,-666.04C873.82,-659.17 858.19,-651.41 844,-644.04 833.12,-638.4 821.51,-632.14 810.61,-626.16"/>
<polygon fill="black" stroke="black" points="812.09,-622.99 801.64,-621.23 808.71,-629.12 812.09,-622.99"/>
</g>
<!-- node7&#45;&gt;node1 -->
<g id="edge61" class="edge">
<title>node7&#45;&gt;node1</title>
<path fill="none" stroke="black" d="M854.76,-681.09C806.86,-675.47 744.8,-664.68 693,-644.04 639.52,-622.74 600.16,-564.24 581.01,-530.29"/>
<polygon fill="black" stroke="black" points="584.02,-528.51 576.15,-521.42 577.88,-531.87 584.02,-528.51"/>
</g>
<!-- node7&#45;&gt;node2 -->
<g id="edge62" class="edge">
<title>node7&#45;&gt;node2</title>
<path fill="none" stroke="black" stroke-dasharray="1,5" d="M919.24,-661.96C908.73,-637.43 898.07,-599.96 915,-573 921.21,-563.11 982.61,-535.86 1022.31,-519.01"/>
<polygon fill="black" stroke="black" points="1023.79,-522.19 1031.65,-515.07 1021.07,-515.74 1023.79,-522.19"/>
</g>
<!-- node7&#45;&gt;node4 -->
<g id="edge64" class="edge">
<title>node7&#45;&gt;node4</title>
<path fill="none" stroke="black" stroke-dasharray="1,5" d="M896.21,-663.23C890.45,-657.66 885.29,-651.23 882,-644.04 868.83,-615.35 869.4,-601.95 882,-573 891.3,-551.63 910.99,-533.94 927.58,-521.96"/>
<polygon fill="black" stroke="black" points="929.65,-524.79 935.9,-516.23 925.68,-519.02 929.65,-524.79"/>
</g>
<!-- node8 -->
<g id="node17" class="node">
<title>node8</title>
<polygon fill="white" stroke="black" points="1110.25,-588.23 1110.25,-609.81 1055.63,-625.07 978.37,-625.07 923.75,-609.81 923.75,-588.23 978.37,-572.98 1055.63,-572.98 1110.25,-588.23"/>
<text text-anchor="middle" x="1017" y="-602.42" font-family="Times New Roman,serif" font-size="12.00">QaterialComponents</text>
<text text-anchor="middle" x="1017" y="-589.42" font-family="Times New Roman,serif" font-size="12.00">(Qaterial::Components)</text>
</g>
<!-- node7&#45;&gt;node8 -->
<g id="edge46" class="edge">
<title>node7&#45;&gt;node8</title>
<path fill="none" stroke="black" stroke-dasharray="1,5" d="M956.59,-661.89C965.57,-652.69 975.87,-642.15 985.38,-632.4"/>
<polygon fill="black" stroke="black" points="987.99,-634.74 992.47,-625.14 982.98,-629.85 987.99,-634.74"/>
</g>
<!-- node10 -->
<g id="node19" class="node">
<title>node10</title>
<polygon fill="white" stroke="black" points="1278.07,-509.56 1241,-522 1203.93,-509.56 1218.09,-489.44 1263.91,-489.44 1278.07,-509.56"/>
<text text-anchor="middle" x="1241" y="-500.9" font-family="Times New Roman,serif" font-size="12.00">Qt::Gui</text>
</g>
<!-- node7&#45;&gt;node10 -->
<g id="edge63" class="edge">
<title>node7&#45;&gt;node10</title>
<path fill="none" stroke="black" stroke-dasharray="1,5" d="M1009.14,-682.97C1141.82,-675.12 1401.7,-655.97 1429,-625.04 1444.31,-607.71 1442.31,-591.92 1429,-573 1390.42,-518.15 1350.01,-544.96 1287,-522 1283.04,-520.56 1278.89,-519.04 1274.78,-517.52"/>
<polygon fill="black" stroke="black" points="1275.93,-514.22 1265.34,-514.04 1273.51,-520.78 1275.93,-514.22"/>
</g>
<!-- node12 -->
<g id="node21" class="node">
<title>node12</title>
<polygon fill="white" stroke="black" points="896.33,-509.56 850,-522 803.67,-509.56 821.37,-489.44 878.63,-489.44 896.33,-509.56"/>
<text text-anchor="middle" x="850" y="-500.9" font-family="Times New Roman,serif" font-size="12.00">Qt::Quick</text>
</g>
<!-- node7&#45;&gt;node12 -->
<g id="edge65" class="edge">
<title>node7&#45;&gt;node12</title>
<path fill="none" stroke="black" stroke-dasharray="1,5" d="M854.63,-677.66C791.43,-668.2 709.33,-651.22 689,-625.04 674.81,-606.78 676.22,-592.28 689,-573 696.28,-562.02 767.85,-534.62 813.08,-518.15"/>
<polygon fill="black" stroke="black" points="814.36,-521.4 822.57,-514.71 811.98,-514.82 814.36,-521.4"/>
</g>
<!-- node15 -->
<g id="node24" class="node">
<title>node15</title>
<polygon fill="white" stroke="black" points="785.81,-509.56 705,-522 624.19,-509.56 655.06,-489.44 754.94,-489.44 785.81,-509.56"/>
<text text-anchor="middle" x="705" y="-500.9" font-family="Times New Roman,serif" font-size="12.00">Qt::QuickControls2</text>
</g>
<!-- node7&#45;&gt;node15 -->
<g id="edge66" class="edge">
<title>node7&#45;&gt;node15</title>
<path fill="none" stroke="black" stroke-dasharray="1,5" d="M854.59,-680.13C786.02,-672.03 693.91,-655.65 675,-625.04 656.59,-595.26 673.78,-554.74 688.71,-529.23"/>
<polygon fill="black" stroke="black" points="691.78,-530.91 694.03,-520.56 685.82,-527.25 691.78,-530.91"/>
</g>
<!-- node17 -->
<g id="node26" class="node">
<title>node17</title>
<polygon fill="white" stroke="black" points="1372.09,-509.56 1334,-522 1295.91,-509.56 1310.46,-489.44 1357.54,-489.44 1372.09,-509.56"/>
<text text-anchor="middle" x="1334" y="-500.9" font-family="Times New Roman,serif" font-size="12.00">Qt::Svg</text>
</g>
<!-- node7&#45;&gt;node17 -->
<g id="edge67" class="edge">
<title>node7&#45;&gt;node17</title>
<path fill="none" stroke="black" stroke-dasharray="1,5" d="M1009.3,-683.95C1147.09,-677.53 1423.15,-660.35 1448,-625.04 1471.43,-591.76 1447.79,-562.7 1414,-540 1400.4,-530.87 1384.03,-523.21 1369.65,-517.4"/>
<polygon fill="black" stroke="black" points="1370.65,-514.04 1360.07,-513.69 1368.12,-520.57 1370.65,-514.04"/>
</g>
<!-- node20 -->
<g id="node29" class="node">
<title>node20</title>
<polygon fill="white" stroke="black" points="1472.63,-509.56 1433,-522 1393.37,-509.56 1408.5,-489.44 1457.5,-489.44 1472.63,-509.56"/>
<text text-anchor="middle" x="1433" y="-500.9" font-family="Times New Roman,serif" font-size="12.00">Qt::Xml</text>
</g>
<!-- node7&#45;&gt;node20 -->
<g id="edge68" class="edge">
<title>node7&#45;&gt;node20</title>
<path fill="none" stroke="black" stroke-dasharray="1,5" d="M1009.23,-687.84C1106.85,-687.11 1279.39,-680.1 1422,-644.04 1442.65,-638.82 1454.3,-642.84 1466,-625.04 1485.88,-594.8 1465.64,-552.77 1449.25,-527.3"/>
<polygon fill="black" stroke="black" points="1451.96,-525.06 1443.47,-518.72 1446.16,-528.97 1451.96,-525.06"/>
</g>
<!-- node22 -->
<g id="node31" class="node">
<title>node22</title>
<polygon fill="white" stroke="black" points="1419.77,-588.23 1419.77,-609.81 1379.48,-625.07 1322.52,-625.07 1282.23,-609.81 1282.23,-588.23 1322.52,-572.98 1379.48,-572.98 1419.77,-588.23"/>
<text text-anchor="middle" x="1351" y="-602.42" font-family="Times New Roman,serif" font-size="12.00">QaterialFonts</text>
<text text-anchor="middle" x="1351" y="-589.42" font-family="Times New Roman,serif" font-size="12.00">(Qaterial::Fonts)</text>
</g>
<!-- node7&#45;&gt;node22 -->
<g id="edge53" class="edge">
<title>node7&#45;&gt;node22</title>
<path fill="none" stroke="black" stroke-dasharray="1,5" d="M1006.77,-676.35C1076.26,-665.7 1182.38,-647.72 1273,-625.04 1278.98,-623.55 1285.16,-621.84 1291.32,-620.04"/>
<polygon fill="black" stroke="black" points="1292.36,-623.38 1300.93,-617.15 1290.34,-616.68 1292.36,-623.38"/>
</g>
<!-- node23 -->
<g id="node32" class="node">
<title>node23</title>
<polygon fill="white" stroke="black" points="1264.24,-588.23 1264.24,-609.81 1224.26,-625.07 1167.74,-625.07 1127.76,-609.81 1127.76,-588.23 1167.74,-572.98 1224.26,-572.98 1264.24,-588.23"/>
<text text-anchor="middle" x="1196" y="-602.42" font-family="Times New Roman,serif" font-size="12.00">QaterialIcons</text>
<text text-anchor="middle" x="1196" y="-589.42" font-family="Times New Roman,serif" font-size="12.00">(Qaterial::Icons)</text>
</g>
<!-- node7&#45;&gt;node23 -->
<g id="edge60" class="edge">
<title>node7&#45;&gt;node23</title>
<path fill="none" stroke="black" stroke-dasharray="1,5" d="M985.74,-669.35C1029.28,-654.99 1090.6,-634.77 1135.79,-619.87"/>
<polygon fill="black" stroke="black" points="1137.06,-623.14 1145.47,-616.68 1134.87,-616.49 1137.06,-623.14"/>
</g>
<!-- node8&#45;&gt;node2 -->
<g id="edge18" class="edge">
<title>node8&#45;&gt;node2</title>
<path fill="none" stroke="black" stroke-dasharray="1,5" d="M1027.66,-572.6C1033.26,-559.23 1040.11,-542.9 1045.67,-529.65"/>
<polygon fill="black" stroke="black" points="1048.99,-530.78 1049.63,-520.2 1042.53,-528.07 1048.99,-530.78"/>
</g>
<!-- node8&#45;&gt;node4 -->
<g id="edge22" class="edge">
<title>node8&#45;&gt;node4</title>
<path fill="none" stroke="black" stroke-dasharray="1,5" d="M964.75,-576.55C956.44,-570.79 948.96,-563.69 944,-555 939.56,-547.23 940.31,-537.85 942.86,-529.32"/>
<polygon fill="black" stroke="black" points="946.18,-530.43 946.47,-519.84 939.64,-527.94 946.18,-530.43"/>
</g>
<!-- node9 -->
<g id="node18" class="node">
<title>node9</title>
<polygon fill="white" stroke="black" points="1154.24,-486.05 1156.38,-486.15 1158.5,-486.3 1160.59,-486.49 1162.65,-486.74 1164.65,-487.03 1166.6,-487.36 1168.48,-487.75 1170.3,-488.18 1172.04,-488.65 1173.69,-489.16 1175.26,-489.71 1176.73,-490.31 1178.1,-490.94 1179.37,-491.61 1180.54,-492.31 1181.59,-493.04 1182.54,-493.8 1183.37,-494.59 1184.08,-495.41 1184.68,-496.25 1185.17,-497.11 1185.54,-497.99 1185.8,-498.89 1185.95,-499.8 1185.99,-500.72 1185.93,-501.65 1185.76,-502.59 1185.49,-503.53 1185.12,-504.47 1184.66,-505.41 1184.12,-506.35 1183.49,-507.28 1182.78,-508.2 1182,-509.11 1181.15,-510.01 1180.24,-510.89 1179.26,-511.75 1178.23,-512.59 1177.15,-513.41 1176.02,-514.2 1174.86,-514.96 1173.65,-515.69 1172.41,-516.39 1171.14,-517.06 1169.84,-517.69 1168.52,-518.29 1167.18,-518.84 1165.82,-519.35 1164.45,-519.82 1163.06,-520.25 1161.67,-520.64 1160.26,-520.97 1158.85,-521.26 1157.43,-521.51 1156,-521.7 1154.58,-521.85 1153.15,-521.95 1151.72,-522 1150.28,-522 1148.85,-521.95 1147.42,-521.85 1146,-521.7 1144.57,-521.51 1143.15,-521.26 1141.74,-520.97 1140.33,-520.64 1138.94,-520.25 1137.55,-519.82 1136.18,-519.35 1134.82,-518.84 1133.48,-518.29 1132.16,-517.69 1130.86,-517.06 1129.59,-516.39 1128.35,-515.69 1127.14,-514.96 1125.98,-514.2 1124.85,-513.41 1123.77,-512.59 1122.74,-511.75 1121.76,-510.89 1120.85,-510.01 1120,-509.11 1119.22,-508.2 1118.51,-507.28 1117.88,-506.35 1117.34,-505.41 1116.88,-504.47 1116.51,-503.53 1116.24,-502.59 1116.07,-501.65 1116.01,-500.72 1116.05,-499.8 1116.2,-498.89 1116.46,-497.99 1116.83,-497.11 1117.32,-496.25 1117.92,-495.41 1118.63,-494.59 1119.46,-493.8 1120.41,-493.04 1121.46,-492.31 1122.63,-491.61 1123.9,-490.94 1125.27,-490.31 1126.74,-489.71 1128.31,-489.16 1129.96,-488.65 1131.7,-488.18 1133.52,-487.75 1135.4,-487.36 1137.35,-487.03 1139.35,-486.74 1141.41,-486.49 1143.5,-486.3 1145.62,-486.15 1147.76,-486.05 1149.92,-486 1152.08,-486 1154.24,-486.05"/>
<text text-anchor="middle" x="1151" y="-500.9" font-family="Times New Roman,serif" font-size="12.00">Qt5::rcc</text>
</g>
<!-- node8&#45;&gt;node9 -->
<g id="edge17" class="edge">
<title>node8&#45;&gt;node9</title>
<path fill="none" stroke="black" d="M1053.26,-572.85C1075.54,-557.38 1103.61,-537.9 1123.95,-523.78"/>
<polygon fill="black" stroke="black" points="1126.21,-526.47 1132.43,-517.89 1122.22,-520.72 1126.21,-526.47"/>
</g>
<!-- node8&#45;&gt;node10 -->
<g id="edge21" class="edge">
<title>node8&#45;&gt;node10</title>
<path fill="none" stroke="black" stroke-dasharray="1,5" d="M1068.67,-576.56C1111.78,-558.66 1171.88,-533.7 1208.52,-518.49"/>
<polygon fill="black" stroke="black" points="1210.31,-521.53 1218.2,-514.47 1207.63,-515.07 1210.31,-521.53"/>
</g>
<!-- node8&#45;&gt;node12 -->
<g id="edge30" class="edge">
<title>node8&#45;&gt;node12</title>
<path fill="none" stroke="black" stroke-dasharray="1,5" d="M972.27,-574.66C960.43,-568.37 947.69,-561.5 936,-555 916.64,-544.24 895.1,-531.71 878.41,-521.89"/>
<polygon fill="black" stroke="black" points="880.08,-518.81 869.69,-516.74 876.52,-524.83 880.08,-518.81"/>
</g>
<!-- node8&#45;&gt;node15 -->
<g id="edge35" class="edge">
<title>node8&#45;&gt;node15</title>
<path fill="none" stroke="black" stroke-dasharray="1,5" d="M954.61,-579.42C895.01,-561.65 806.49,-535.26 752.44,-519.14"/>
<polygon fill="black" stroke="black" points="753.35,-515.76 742.77,-516.26 751.35,-522.47 753.35,-515.76"/>
</g>
<!-- node8&#45;&gt;node17 -->
<g id="edge42" class="edge">
<title>node8&#45;&gt;node17</title>
<path fill="none" stroke="black" stroke-dasharray="1,5" d="M1083.7,-580.69C1138.59,-566.08 1218.26,-544.08 1287,-522 1291.3,-520.62 1295.79,-519.1 1300.22,-517.55"/>
<polygon fill="black" stroke="black" points="1301.48,-520.82 1309.72,-514.16 1299.13,-514.22 1301.48,-520.82"/>
</g>
<!-- node8&#45;&gt;node20 -->
<g id="edge45" class="edge">
<title>node8&#45;&gt;node20</title>
<path fill="none" stroke="black" stroke-dasharray="1,5" d="M1084.35,-580.87C1095.88,-578.11 1107.76,-575.39 1119,-573 1163.17,-563.62 1174.65,-563.51 1219,-555 1291.16,-541.16 1309.96,-540.78 1381,-522 1386.39,-520.57 1392.05,-518.91 1397.57,-517.18"/>
<polygon fill="black" stroke="black" points="1398.81,-520.46 1407.25,-514.07 1396.66,-513.8 1398.81,-520.46"/>
</g>
<!-- node11 -->
<g id="node20" class="node">
<title>node11</title>
<polygon fill="white" stroke="black" points="1170.78,-257.54 1170.78,-272.46 1149.23,-283 1118.77,-283 1097.22,-272.46 1097.22,-257.54 1118.77,-247 1149.23,-247 1170.78,-257.54"/>
<polygon fill="none" stroke="black" points="1174.79,-255.05 1174.79,-274.95 1150.17,-287 1117.83,-287 1093.21,-274.95 1093.21,-255.05 1117.83,-243 1150.17,-243 1174.79,-255.05"/>
<text text-anchor="middle" x="1134" y="-261.9" font-family="Times New Roman,serif" font-size="12.00">Qt5::Gui</text>
</g>
<!-- node10&#45;&gt;node11 -->
<g id="edge20" class="edge">
<title>node10&#45;&gt;node11</title>
<path fill="none" stroke="black" stroke-dasharray="5,2" d="M1225.36,-489.09C1201.15,-466.47 1155.39,-419.08 1136,-368 1127.44,-345.44 1127.42,-318 1129.28,-297.27"/>
<polygon fill="black" stroke="black" points="1132.79,-297.42 1130.39,-287.1 1125.83,-296.66 1132.79,-297.42"/>
</g>
<!-- node11&#45;&gt;node3 -->
<g id="edge19" class="edge">
<title>node11&#45;&gt;node3</title>
<path fill="none" stroke="black" d="M1131.63,-242.99C1126.62,-204.85 1112.54,-122.58 1079,-62 1076.78,-57.99 1074.07,-54.07 1071.13,-50.35"/>
<polygon fill="black" stroke="black" points="1073.63,-47.89 1064.46,-42.58 1068.32,-52.45 1073.63,-47.89"/>
</g>
<!-- node13 -->
<g id="node22" class="node">
<title>node13</title>
<polygon fill="white" stroke="black" points="894.77,-338.54 894.77,-353.46 868.55,-364 831.45,-364 805.23,-353.46 805.23,-338.54 831.45,-328 868.55,-328 894.77,-338.54"/>
<polygon fill="none" stroke="black" points="898.79,-335.84 898.79,-356.16 869.32,-368 830.68,-368 801.21,-356.16 801.21,-335.84 830.68,-324 869.32,-324 898.79,-335.84"/>
<text text-anchor="middle" x="850" y="-342.9" font-family="Times New Roman,serif" font-size="12.00">Qt5::Quick</text>
</g>
<!-- node12&#45;&gt;node13 -->
<g id="edge29" class="edge">
<title>node12&#45;&gt;node13</title>
<path fill="none" stroke="black" stroke-dasharray="5,2" d="M850,-489.43C850,-464.88 850,-412.5 850,-378.57"/>
<polygon fill="black" stroke="black" points="853.5,-378.25 850,-368.25 846.5,-378.25 853.5,-378.25"/>
</g>
<!-- node13&#45;&gt;node3 -->
<g id="edge23" class="edge">
<title>node13&#45;&gt;node3</title>
<path fill="none" stroke="black" d="M812.85,-331.02C786.57,-318.44 756,-297.12 756,-266 756,-266 756,-266 756,-102 756,-54.44 904.38,-34.43 987.76,-26.94"/>
<polygon fill="black" stroke="black" points="988.18,-30.42 997.84,-26.07 987.58,-23.44 988.18,-30.42"/>
</g>
<!-- node13&#45;&gt;node5 -->
<g id="edge25" class="edge">
<title>node13&#45;&gt;node5</title>
<path fill="none" stroke="black" d="M880.77,-328.53C896.43,-318.57 914.36,-304.42 925,-287 938.01,-265.7 942.5,-237.57 943.89,-216.24"/>
<polygon fill="black" stroke="black" points="947.39,-216.23 944.35,-206.08 940.4,-215.92 947.39,-216.23"/>
</g>
<!-- node13&#45;&gt;node11 -->
<g id="edge24" class="edge">
<title>node13&#45;&gt;node11</title>
<path fill="none" stroke="black" d="M892.52,-333.17C944.52,-318.71 1032.3,-294.29 1086.48,-279.22"/>
<polygon fill="black" stroke="black" points="1087.5,-282.57 1096.19,-276.52 1085.62,-275.82 1087.5,-282.57"/>
</g>
<!-- node14 -->
<g id="node23" class="node">
<title>node14</title>
<polygon fill="white" stroke="black" points="911.94,-257.54 911.94,-272.46 875.65,-283 824.35,-283 788.06,-272.46 788.06,-257.54 824.35,-247 875.65,-247 911.94,-257.54"/>
<polygon fill="none" stroke="black" points="915.93,-254.54 915.93,-275.46 876.22,-287 823.78,-287 784.07,-275.46 784.07,-254.54 823.78,-243 876.22,-243 915.93,-254.54"/>
<text text-anchor="middle" x="850" y="-261.9" font-family="Times New Roman,serif" font-size="12.00">Qt5::QmlModels</text>
</g>
<!-- node13&#45;&gt;node14 -->
<g id="edge28" class="edge">
<title>node13&#45;&gt;node14</title>
<path fill="none" stroke="black" d="M850,-323.83C850,-315.68 850,-306.2 850,-297.3"/>
<polygon fill="black" stroke="black" points="853.5,-297.23 850,-287.23 846.5,-297.23 853.5,-297.23"/>
</g>
<!-- node14&#45;&gt;node3 -->
<g id="edge26" class="edge">
<title>node14&#45;&gt;node3</title>
<path fill="none" stroke="black" d="M852.04,-242.84C856.35,-206.91 868.95,-132.84 903,-81 921.62,-52.65 956.99,-38.14 987.52,-30.73"/>
<polygon fill="black" stroke="black" points="988.66,-34.06 997.66,-28.48 987.14,-27.23 988.66,-34.06"/>
</g>
<!-- node14&#45;&gt;node5 -->
<g id="edge27" class="edge">
<title>node14&#45;&gt;node5</title>
<path fill="none" stroke="black" d="M875.19,-242.83C887.06,-232.86 901.31,-220.88 913.75,-210.42"/>
<polygon fill="black" stroke="black" points="916.22,-212.92 921.63,-203.8 911.72,-207.56 916.22,-212.92"/>
</g>
<!-- node16 -->
<g id="node25" class="node">
<title>node16</title>
<polygon fill="white" stroke="black" points="808.75,-419.54 808.75,-434.46 764.96,-445 703.04,-445 659.25,-434.46 659.25,-419.54 703.04,-409 764.96,-409 808.75,-419.54"/>
<polygon fill="none" stroke="black" points="812.75,-416.39 812.75,-437.61 765.44,-449 702.56,-449 655.25,-437.61 655.25,-416.39 702.56,-405 765.44,-405 812.75,-416.39"/>
<text text-anchor="middle" x="734" y="-423.9" font-family="Times New Roman,serif" font-size="12.00">Qt5::QuickControls2</text>
</g>
<!-- node15&#45;&gt;node16 -->
<g id="edge34" class="edge">
<title>node15&#45;&gt;node16</title>
<path fill="none" stroke="black" stroke-dasharray="5,2" d="M710.32,-489.24C713.65,-480.63 718.08,-469.18 722.2,-458.51"/>
<polygon fill="black" stroke="black" points="725.52,-459.63 725.87,-449.04 718.99,-457.1 725.52,-459.63"/>
</g>
<!-- node16&#45;&gt;node3 -->
<g id="edge31" class="edge">
<title>node16&#45;&gt;node3</title>
<path fill="none" stroke="black" d="M727.31,-404.78C722.92,-389 718,-366.87 718,-347 718,-347 718,-347 718,-102 718,-47.15 894.99,-30.23 987.75,-25.13"/>
<polygon fill="black" stroke="black" points="988.01,-28.62 997.81,-24.61 987.64,-21.63 988.01,-28.62"/>
</g>
<!-- node16&#45;&gt;node11 -->
<g id="edge32" class="edge">
<title>node16&#45;&gt;node11</title>
<path fill="none" stroke="black" d="M786.65,-409.99C821.43,-399.05 867.82,-383.72 908,-368 974.99,-341.79 1050.83,-306.34 1095.41,-284.87"/>
<polygon fill="black" stroke="black" points="1096.96,-288.02 1104.44,-280.51 1093.91,-281.71 1096.96,-288.02"/>
</g>
<!-- node16&#45;&gt;node13 -->
<g id="edge33" class="edge">
<title>node16&#45;&gt;node13</title>
<path fill="none" stroke="black" d="M765.09,-404.83C780.37,-394.42 798.87,-381.82 814.69,-371.05"/>
<polygon fill="black" stroke="black" points="816.87,-373.8 823.17,-365.27 812.93,-368.01 816.87,-373.8"/>
</g>
<!-- node18 -->
<g id="node27" class="node">
<title>node18</title>
<polygon fill="white" stroke="black" points="1310.15,-419.54 1310.15,-434.46 1288.39,-445 1257.61,-445 1235.85,-434.46 1235.85,-419.54 1257.61,-409 1288.39,-409 1310.15,-419.54"/>
<polygon fill="none" stroke="black" points="1314.13,-417.03 1314.13,-436.97 1289.3,-449 1256.7,-449 1231.87,-436.97 1231.87,-417.03 1256.7,-405 1289.3,-405 1314.13,-417.03"/>
<text text-anchor="middle" x="1273" y="-423.9" font-family="Times New Roman,serif" font-size="12.00">Qt5::Svg</text>
</g>
<!-- node17&#45;&gt;node18 -->
<g id="edge41" class="edge">
<title>node17&#45;&gt;node18</title>
<path fill="none" stroke="black" stroke-dasharray="5,2" d="M1322.81,-489.24C1315.39,-480.12 1305.39,-467.82 1296.29,-456.64"/>
<polygon fill="black" stroke="black" points="1298.9,-454.3 1289.88,-448.75 1293.47,-458.71 1298.9,-454.3"/>
</g>
<!-- node18&#45;&gt;node3 -->
<g id="edge36" class="edge">
<title>node18&#45;&gt;node3</title>
<path fill="none" stroke="black" d="M1287.62,-404.91C1296.83,-389.57 1307,-367.9 1307,-347 1307,-347 1307,-347 1307,-102 1307,-58.85 1175.9,-37.28 1098.47,-28.31"/>
<polygon fill="black" stroke="black" points="1098.71,-24.81 1088.38,-27.18 1097.93,-31.77 1098.71,-24.81"/>
</g>
<!-- node18&#45;&gt;node11 -->
<g id="edge37" class="edge">
<title>node18&#45;&gt;node11</title>
<path fill="none" stroke="black" d="M1234.93,-415.46C1210.1,-406.68 1178.9,-391.71 1160,-368 1144.04,-347.98 1137.76,-319.33 1135.35,-297.49"/>
<polygon fill="black" stroke="black" points="1138.82,-297.03 1134.45,-287.38 1131.85,-297.65 1138.82,-297.03"/>
</g>
<!-- node19 -->
<g id="node28" class="node">
<title>node19</title>
<polygon fill="white" stroke="black" points="1275.13,-338.54 1275.13,-353.46 1245.18,-364 1202.82,-364 1172.87,-353.46 1172.87,-338.54 1202.82,-328 1245.18,-328 1275.13,-338.54"/>
<polygon fill="none" stroke="black" points="1279.11,-335.71 1279.11,-356.29 1245.86,-368 1202.14,-368 1168.89,-356.29 1168.89,-335.71 1202.14,-324 1245.86,-324 1279.11,-335.71"/>
<text text-anchor="middle" x="1224" y="-342.9" font-family="Times New Roman,serif" font-size="12.00">Qt5::Widgets</text>
</g>
<!-- node18&#45;&gt;node19 -->
<g id="edge40" class="edge">
<title>node18&#45;&gt;node19</title>
<path fill="none" stroke="black" d="M1259.87,-404.83C1254.54,-396.24 1248.29,-386.16 1242.52,-376.85"/>
<polygon fill="black" stroke="black" points="1245.41,-374.88 1237.17,-368.23 1239.46,-378.57 1245.41,-374.88"/>
</g>
<!-- node19&#45;&gt;node3 -->
<g id="edge38" class="edge">
<title>node19&#45;&gt;node3</title>
<path fill="none" stroke="black" d="M1219.46,-323.99C1216.43,-308.13 1213,-285.8 1213,-266 1213,-266 1213,-266 1213,-102 1213,-50.54 1148.16,-32.51 1098.56,-26.25"/>
<polygon fill="black" stroke="black" points="1098.89,-22.76 1088.56,-25.11 1098.1,-29.72 1098.89,-22.76"/>
</g>
<!-- node19&#45;&gt;node11 -->
<g id="edge39" class="edge">
<title>node19&#45;&gt;node11</title>
<path fill="none" stroke="black" d="M1200.35,-324.24C1188.9,-314.19 1175.05,-302.04 1162.97,-291.43"/>
<polygon fill="black" stroke="black" points="1165.16,-288.69 1155.34,-284.73 1160.54,-293.96 1165.16,-288.69"/>
</g>
<!-- node21 -->
<g id="node30" class="node">
<title>node21</title>
<polygon fill="white" stroke="black" points="1422.78,-419.54 1422.78,-434.46 1400.06,-445 1367.94,-445 1345.22,-434.46 1345.22,-419.54 1367.94,-409 1400.06,-409 1422.78,-419.54"/>
<polygon fill="none" stroke="black" points="1426.79,-416.99 1426.79,-437.01 1400.95,-449 1367.05,-449 1341.21,-437.01 1341.21,-416.99 1367.05,-405 1400.95,-405 1426.79,-416.99"/>
<text text-anchor="middle" x="1384" y="-423.9" font-family="Times New Roman,serif" font-size="12.00">Qt5::Xml</text>
</g>
<!-- node20&#45;&gt;node21 -->
<g id="edge44" class="edge">
<title>node20&#45;&gt;node21</title>
<path fill="none" stroke="black" stroke-dasharray="5,2" d="M1424.01,-489.24C1418.21,-480.37 1410.44,-468.48 1403.3,-457.53"/>
<polygon fill="black" stroke="black" points="1406.14,-455.5 1397.74,-449.04 1400.28,-459.32 1406.14,-455.5"/>
</g>
<!-- node21&#45;&gt;node3 -->
<g id="edge43" class="edge">
<title>node21&#45;&gt;node3</title>
<path fill="none" stroke="black" d="M1378.56,-404.7C1375,-388.89 1371,-366.74 1371,-347 1371,-347 1371,-347 1371,-102 1371,-46.6 1191.92,-29.94 1098.4,-25.01"/>
<polygon fill="black" stroke="black" points="1098.42,-21.51 1088.26,-24.51 1098.08,-28.5 1098.42,-21.51"/>
</g>
<!-- node22&#45;&gt;node2 -->
<g id="edge48" class="edge">
<title>node22&#45;&gt;node2</title>
<path fill="none" stroke="black" stroke-dasharray="1,5" d="M1299.84,-581.51C1290.9,-578.65 1281.68,-575.73 1273,-573 1199.36,-549.88 1180.5,-545.54 1107,-522 1102.41,-520.53 1097.59,-518.96 1092.83,-517.39"/>
<polygon fill="black" stroke="black" points="1093.82,-514.03 1083.22,-514.21 1091.61,-520.68 1093.82,-514.03"/>
</g>
<!-- node22&#45;&gt;node4 -->
<g id="edge50" class="edge">
<title>node22&#45;&gt;node4</title>
<path fill="none" stroke="black" stroke-dasharray="1,5" d="M1301.38,-580.89C1292.02,-578.01 1282.26,-575.23 1273,-573 1224.84,-561.4 1211.71,-564.04 1163,-555 1092.04,-541.84 1073.57,-541.2 1004,-522 999.31,-520.71 994.42,-519.2 989.62,-517.63"/>
<polygon fill="black" stroke="black" points="990.58,-514.26 979.98,-514.37 988.33,-520.89 990.58,-514.26"/>
</g>
<!-- node22&#45;&gt;node9 -->
<g id="edge47" class="edge">
<title>node22&#45;&gt;node9</title>
<path fill="none" stroke="black" d="M1308.09,-578.07C1270.7,-560.67 1217.27,-535.83 1183.37,-520.06"/>
<polygon fill="black" stroke="black" points="1184.48,-516.71 1173.93,-515.67 1181.53,-523.06 1184.48,-516.71"/>
</g>
<!-- node22&#45;&gt;node10 -->
<g id="edge49" class="edge">
<title>node22&#45;&gt;node10</title>
<path fill="none" stroke="black" stroke-dasharray="1,5" d="M1321.52,-573.09C1303.15,-557.55 1279.89,-537.88 1263.1,-523.69"/>
<polygon fill="black" stroke="black" points="1265.32,-520.98 1255.42,-517.2 1260.8,-526.33 1265.32,-520.98"/>
</g>
<!-- node22&#45;&gt;node17 -->
<g id="edge51" class="edge">
<title>node22&#45;&gt;node17</title>
<path fill="none" stroke="black" stroke-dasharray="1,5" d="M1346.35,-572.6C1344.02,-559.83 1341.19,-544.36 1338.83,-531.44"/>
<polygon fill="black" stroke="black" points="1342.22,-530.52 1336.98,-521.31 1335.34,-531.78 1342.22,-530.52"/>
</g>
<!-- node22&#45;&gt;node20 -->
<g id="edge52" class="edge">
<title>node22&#45;&gt;node20</title>
<path fill="none" stroke="black" stroke-dasharray="1,5" d="M1408.18,-583.58C1422.25,-577.19 1435.66,-568.04 1444,-555 1448.94,-547.27 1448.11,-537.65 1445.36,-528.92"/>
<polygon fill="black" stroke="black" points="1448.6,-527.58 1441.65,-519.59 1442.09,-530.17 1448.6,-527.58"/>
</g>
<!-- node23&#45;&gt;node2 -->
<g id="edge55" class="edge">
<title>node23&#45;&gt;node2</title>
<path fill="none" stroke="black" stroke-dasharray="1,5" d="M1161.39,-575.03C1136.95,-558.78 1104.68,-537.35 1082.32,-522.49"/>
<polygon fill="black" stroke="black" points="1084.25,-519.57 1073.98,-516.95 1080.37,-525.4 1084.25,-519.57"/>
</g>
<!-- node23&#45;&gt;node4 -->
<g id="edge57" class="edge">
<title>node23&#45;&gt;node4</title>
<path fill="none" stroke="black" stroke-dasharray="1,5" d="M1149.25,-579.98C1102.23,-561.83 1030.88,-534.29 989,-518.12"/>
<polygon fill="black" stroke="black" points="990.12,-514.8 979.53,-514.47 987.6,-521.33 990.12,-514.8"/>
</g>
<!-- node23&#45;&gt;node9 -->
<g id="edge54" class="edge">
<title>node23&#45;&gt;node9</title>
<path fill="none" stroke="black" d="M1183.7,-572.6C1177.4,-559.57 1169.74,-543.74 1163.42,-530.67"/>
<polygon fill="black" stroke="black" points="1166.4,-528.79 1158.89,-521.31 1160.09,-531.84 1166.4,-528.79"/>
</g>
<!-- node23&#45;&gt;node10 -->
<g id="edge56" class="edge">
<title>node23&#45;&gt;node10</title>
<path fill="none" stroke="black" stroke-dasharray="1,5" d="M1208.3,-572.6C1214.91,-558.93 1223.02,-542.16 1229.51,-528.75"/>
<polygon fill="black" stroke="black" points="1232.7,-530.19 1233.91,-519.66 1226.4,-527.14 1232.7,-530.19"/>
</g>
<!-- node23&#45;&gt;node17 -->
<g id="edge58" class="edge">
<title>node23&#45;&gt;node17</title>
<path fill="none" stroke="black" stroke-dasharray="1,5" d="M1246.36,-581.38C1275.23,-571.49 1306.76,-559.93 1312,-555 1319.02,-548.38 1323.94,-539.13 1327.31,-530.38"/>
<polygon fill="black" stroke="black" points="1330.63,-531.48 1330.49,-520.89 1324,-529.25 1330.63,-531.48"/>
</g>
<!-- node23&#45;&gt;node20 -->
<g id="edge59" class="edge">
<title>node23&#45;&gt;node20</title>
<path fill="none" stroke="black" stroke-dasharray="1,5" d="M1244.9,-580.58C1254.15,-577.73 1263.81,-575.04 1273,-573 1304.91,-565.92 1394.21,-576.31 1419,-555 1425.61,-549.32 1429.22,-540.79 1431.16,-532.39"/>
<polygon fill="black" stroke="black" points="1434.64,-532.82 1432.78,-522.39 1427.73,-531.7 1434.64,-532.82"/>
</g>
</g>
</svg>
